<?xml version="1.0" standalone="no"?>
<!DOCTYPE svg PUBLIC "-//W3C//DTD SVG 1.1//EN" "http://www.w3.org/Graphics/SVG/1.1/DTD/svg11.dtd" >
<svg xmlns="http://www.w3.org/2000/svg">
<metadata></metadata>
<defs>
<font id="quadrat-serial-lightregular" horiz-adv-x="1331" >
<font-face units-per-em="2048" ascent="1638" descent="-410" />
<missing-glyph horiz-adv-x="593" />
<glyph horiz-adv-x="0" />
<glyph unicode="&#xd;" horiz-adv-x="593" />
<glyph unicode=" "  horiz-adv-x="593" />
<glyph unicode="&#x09;" horiz-adv-x="593" />
<glyph unicode="&#xa0;" horiz-adv-x="593" />
<glyph unicode="!" horiz-adv-x="481" d="M92 117q0 61 43 106t105 45q61 0 104 -45t43 -106q0 -59 -43 -102.5t-104 -43.5t-104.5 41.5t-43.5 104.5zM111 1477h249l-41 -1119h-165z" />
<glyph unicode="&#x22;" horiz-adv-x="776" d="M61 1343q0 68 45.5 115t112.5 47q68 0 104.5 -47t36.5 -135q0 -45 -10 -87t-34.5 -85t-63.5 -86q-18 -20 -48 -45.5t-73 -58.5l-39 28q35 33 54.5 58.5t29.5 56.5q14 29 14 59l-4 43q-74 31 -99.5 58.5t-25.5 78.5zM416 1343q0 66 46 114t113 48q66 0 104 -48t38 -134 q0 -88 -45 -170q-8 -14 -21 -33q-18 -29 -39.5 -52.5t-51.5 -48.5t-73 -58l-38 28q68 63 86 115q12 29 12 59l-4 43q-72 31 -99.5 59.5t-27.5 77.5z" />
<glyph unicode="#" horiz-adv-x="1294" d="M109 475l18 86h235l74 352h-235l18 86h236l92 439h86l-92 -439h227l92 439h86l-92 -439h236l-19 -86h-235l-76 -352h237l-18 -86h-236l-92 -438h-86l92 438h-227l-92 -438h-86l92 438h-235zM449 561h225l76 352h-228z" />
<glyph unicode="$" horiz-adv-x="1054" d="M8 301q78 -47 125 -68.5t113.5 -41t116 -27.5t98.5 -17v506q-203 49 -318.5 162t-115.5 260q0 166 114.5 272.5t323.5 131.5v192h160v-180q88 0 143 -12q57 -18 94 -27v-260l-114 80q-41 29 -63.5 37t-59.5 8l2 -477q59 -25 84.5 -38.5t62.5 -33.5q231 -129 232 -350 q0 -156 -106.5 -273.5t-278.5 -152.5v-217l-162 2v190h-39l-162 10q-55 8 -63 11q-43 8 -111 35zM264 1116q0 -74 47.5 -128t151.5 -99v422q-199 -61 -199 -195zM623 182q49 20 71.5 37t42.5 47q37 53 37 121q0 72 -43 113q-14 12 -33.5 26t-74.5 49v-393z" />
<glyph unicode="%" horiz-adv-x="1550" d="M63 0l1272 1477h152l-1270 -1477h-154zM86 1145q0 147 104.5 253.5t251.5 106.5q150 0 252.5 -100t102.5 -250q0 -145 -104.5 -249.5t-252.5 -104.5q-131 0 -234.5 93t-117.5 222zM229 1139q10 -121 71.5 -195t154.5 -74q90 0 143 69t53 187q0 49 -6 87t-16 81 q-18 59 -73.5 98.5t-121.5 39.5q-94 0 -149.5 -71t-55.5 -192v-30zM764 311q0 152 104.5 258.5t253.5 106.5q143 0 248 -102.5t105 -247.5t-102.5 -252t-246.5 -107q-137 0 -238.5 84t-119.5 215zM907 381q0 -160 64.5 -257t169.5 -97q86 0 141 66.5t55 170.5 q0 152 -65.5 248t-167.5 96q-168 0 -195 -188z" />
<glyph unicode="&#x26;" horiz-adv-x="1697" d="M53 391q0 109 58 205q41 68 86 117q38 40 163 151q-180 174 -180 328q0 135 101.5 224t257.5 89q147 0 241 -77.5t94 -204.5q0 -47 -13 -95.5t-36.5 -87.5t-52.5 -69.5t-98 -91.5q104 -104 191 -183.5t206 -183.5q360 -313 504 -395q29 -18 133 -62q63 -29 129 -55h-313 q-96 0 -136 8t-99.5 39t-111 69t-139.5 120q-23 -37 -28 -46q-12 -18 -49 -63q-129 -160 -394 -160q-215 0 -364.5 123t-149.5 301zM303 406q0 -113 86 -187t219 -74q160 0 271 101q14 12 26 23t39 42q-164 147 -218 199.5t-216 208.5q-78 -66 -96.5 -82t-46.5 -51 q-63 -78 -64 -180zM389 1227q0 -57 45 -107l49 -51l47 -55q43 39 68 65q14 14 37 41q43 53 43 103q0 57 -43 98t-105 41q-57 0 -99 -40t-42 -95z" />
<glyph unicode="'" horiz-adv-x="419" d="M61 1343q0 68 45.5 115t112.5 47q68 0 104.5 -47t36.5 -135q0 -45 -10 -87t-34.5 -85t-63.5 -86q-18 -20 -48 -45.5t-73 -58.5l-39 28q35 33 54.5 58.5t29.5 56.5q14 29 14 59l-4 43q-74 31 -99.5 58.5t-25.5 78.5z" />
<glyph unicode="(" horiz-adv-x="514" d="M61 647q0 313 152 664q41 94 65.5 137t81.5 125l129 -4q-57 -117 -82.5 -183.5t-56.5 -181.5q-43 -150 -63.5 -287t-20.5 -270q0 -266 84 -561q31 -111 56.5 -179.5t82.5 -185.5l-129 -2q-49 68 -78.5 120t-68.5 141q-152 358 -152 667z" />
<glyph unicode=")" horiz-adv-x="514" d="M25 -279q49 100 79.5 181.5t59.5 183.5q43 152 63.5 290t20.5 269q0 260 -84 559q-33 119 -57.5 182.5t-81.5 182.5l129 4q131 -180 215 -438t84 -488q0 -236 -82 -488.5t-217 -439.5z" />
<glyph unicode="*" horiz-adv-x="677" d="M43 1262q0 45 28.5 77.5t69.5 32.5t65.5 -18.5t59.5 -73.5l49 -74q-68 -23 -104.5 -31t-63.5 -8q-104 0 -104 95zM106 1038q0 41 15.5 60.5t67 39t66.5 24t64 16.5v-62v-51q0 -61 -28.5 -100t-75.5 -39t-78 32.5t-31 79.5zM233 1415q0 39 32 64.5t79 25.5 q43 0 70.5 -27.5t27.5 -74.5q0 -31 -10 -51.5t-49 -67.5l-43 -57q-106 119 -107 188zM350 1176q20 -8 46 -16.5t46 -14.5q72 -23 100.5 -49.5t28.5 -73.5q0 -14 -4 -23q-10 -29 -42.5 -51t-65.5 -22q-82 0 -101 104q-4 27 -6 52.5t-2 93.5zM356 1200l47 66q59 102 140 102 q41 0 67.5 -28.5t26.5 -67.5q0 -51 -31 -82t-86 -31q-29 0 -108 25z" />
<glyph unicode="+" d="M152 633v209l411 -2v415h205v-415h412v-207h-412v-412h-203v412h-413z" />
<glyph unicode="," horiz-adv-x="419" d="M61 119q0 68 45.5 115t112.5 47q68 0 104.5 -47.5t36.5 -133.5q0 -45 -10 -87t-35 -85q-12 -23 -26.5 -42t-37 -43.5t-50 -49t-70.5 -57.5l-39 31q68 61 84 114q14 31 14 58t-4 43q-72 29 -98.5 58.5t-26.5 78.5z" />
<glyph unicode="-" horiz-adv-x="878" d="M49 465l209 213h571l-204 -213h-576z" />
<glyph unicode="." horiz-adv-x="428" d="M61 121q0 66 43 108.5t107 42.5q63 0 108.5 -43t45.5 -104q0 -63 -43 -108.5t-107 -45.5q-63 0 -108.5 43.5t-45.5 106.5z" />
<glyph unicode="/" horiz-adv-x="1134" d="M-53 0l1034 1477h205l-1032 -1477h-207z" />
<glyph unicode="0" d="M72 737q0 213 80 398q47 92 100 163q162 207 414 207q135 0 230 -47t185 -160q178 -231 179 -561q0 -217 -80 -393q-39 -88 -99 -164q-168 -211 -415 -211q-252 0 -414 211q-180 227 -180 557zM309 784q0 -262 116 -455.5t273 -193.5q145 0 233.5 153.5t88.5 405.5 q0 258 -115.5 451.5t-269.5 193.5q-137 0 -230.5 -133t-93.5 -352z" />
<glyph unicode="1" d="M367 1169q180 92 249.5 149.5t186.5 209.5v-1381q0 -12 6 -32.5t16.5 -39t26.5 -34.5t53 -41h-422q27 18 43 33q25 23 39 45l15 41l4 24v1026h-217z" />
<glyph unicode="2" d="M74 0l149 203q37 51 125 180q127 186 152 223q51 74 92 139q51 80 125 222q33 59 45 96t12 72q0 168 -221 168q-43 0 -90 -8.5t-94 -23t-81 -30.5t-120 -63l111 268q94 29 151 38t135 9q463 0 463 -307q0 -72 -24.5 -134.5t-100.5 -179.5l-106 -165l-121 -181 q-41 -57 -110.5 -147t-157.5 -199q137 -12 206.5 -16t120.5 -4q131 0 214 20.5t241 87.5l-131 -268h-985z" />
<glyph unicode="3" d="M152 246q109 -53 188.5 -76t153.5 -23q182 0 305 92.5t123 231.5q0 113 -86 184.5t-220 71.5q-63 0 -213 -37v199q39 -10 55.5 -12.5t45.5 -2.5q152 0 249 70t97 178q0 84 -78 139.5t-197 55.5q-41 0 -101 -12.5t-101 -30.5l-117 -47l-20 -8l90 227q92 29 146 38t132 9 q221 0 351 -91t130 -247q0 -104 -77 -194q-31 -35 -69 -62t-103 -61q141 -23 228 -126.5t87 -246.5q0 -215 -174 -350t-453 -135l-61 2q-70 0 -93.5 2t-127.5 24z" />
<glyph unicode="4" d="M-31 276l717 1201h252v-1024l82 -7q74 0 120 16.5t138 72.5l-104 -263h-230v-125l6 -28l15 -43q10 -16 26.5 -34.5t48.5 -41.5h-409q90 68 90 147v129h-752zM281 471q98 0 157.5 -4t141.5 -8h139v768z" />
<glyph unicode="5" d="M172 270q68 -43 114 -64.5t99 -33.5q27 -6 73 -10t83 -4q166 0 278.5 92t112.5 229q0 133 -99.5 212t-269.5 79q-117 0 -180.5 -16.5t-157.5 -71.5l41 795h760v-287l-70 43q-117 70 -303 70q-51 0 -77.5 -2.5t-112.5 -12.5l-19 -389q158 37 240 37q205 0 334 -123 t129 -319q0 -233 -172 -377t-453 -144q-66 0 -105.5 4.5t-131.5 22.5z" />
<glyph unicode="6" d="M98 612q0 127 49.5 265.5t135.5 250.5q133 174 360 283q106 47 194 70t246 41l-100 -148q-90 -23 -142.5 -41t-109.5 -49q-70 -39 -140.5 -99.5t-121.5 -123.5q-47 -63 -79 -135t-56.5 -175.5t-24.5 -181.5q0 -190 106.5 -321t262.5 -131q141 0 238.5 113.5t97.5 273.5 q0 111 -74 209q-51 70 -117.5 101.5t-165.5 31.5q-59 0 -115.5 -16.5t-160.5 -61.5l172 195q129 31 203 30q201 0 339 -140t138 -345q0 -231 -157.5 -389t-391.5 -158q-264 0 -425 179t-161 472z" />
<glyph unicode="7" d="M156 1190l114 287h910l-506 -1227q-33 -74 -43 -114t-10 -85v-51h-306l562 1266q-92 25 -156 33t-137 8l-80 -2q-127 0 -195 -25q-49 -18 -153 -90z" />
<glyph unicode="8" d="M72 393q0 129 73 225q39 45 95.5 78t169.5 72l-66 29q-90 45 -147.5 133t-57.5 184q0 168 143.5 274.5t374.5 106.5q248 0 395.5 -104.5t147.5 -280.5q0 -236 -272 -324q104 -55 143 -80.5t84 -70.5t72.5 -113.5t27.5 -140.5q0 -184 -152.5 -302t-393.5 -118 q-154 0 -287 29q-158 37 -254 147.5t-96 255.5zM295 442q0 -141 115.5 -240.5t281.5 -99.5q135 0 232.5 81t97.5 196q0 133 -197 213l-120 47l-127 47l-43 12q-111 -23 -157 -57.5t-71 -110.5q-12 -43 -12 -88zM354 1153q0 -57 49 -117q35 -41 81 -68.5t137 -62.5l137 -51 l45 -14q72 43 106.5 75.5t55.5 77.5q10 18 16 47t6 52q0 104 -107.5 185t-244.5 81q-117 0 -199 -59.5t-82 -145.5z" />
<glyph unicode="9" d="M82 979q0 229 158.5 386t390.5 157q264 0 426 -180.5t162 -473.5q0 -127 -49.5 -263t-137.5 -253q-137 -178 -358 -278q-106 -51 -191.5 -72t-249.5 -39l99 143q98 25 142 41.5t112.5 53.5t137.5 95t121 125.5t81.5 135.5t54.5 172.5t25 181.5q0 190 -106.5 321.5 t-262.5 131.5q-139 0 -237.5 -110.5t-98.5 -272.5q0 -150 101.5 -247t254.5 -97q59 0 115.5 16.5t161.5 61.5l-172 -197q-129 -31 -201 -31q-201 0 -340 141.5t-139 350.5z" />
<glyph unicode=":" horiz-adv-x="442" d="M76 926q0 63 44 107t107 44t108.5 -43t45.5 -108q0 -59 -43 -102.5t-109 -43.5q-63 0 -108 43.5t-45 102.5zM78 121q0 63 42 107t105 44q66 0 111 -43t45 -104q0 -63 -43 -108.5t-109 -45.5q-61 0 -106 43.5t-45 106.5z" />
<glyph unicode=";" horiz-adv-x="442" d="M76 922q0 66 43 110.5t108 44.5q61 0 105.5 -46t44.5 -107t-44 -105.5t-106 -44.5q-61 0 -106 43.5t-45 104.5zM82 119q0 68 47 115t113 47t103.5 -48.5t37.5 -132.5q0 -82 -47 -172q-25 -47 -62 -86q-23 -25 -50 -49t-70 -57l-39 31q66 61 84 114q14 31 14 60l-4 41 q-70 29 -98.5 59.5t-28.5 77.5z" />
<glyph unicode="&#x3c;" horiz-adv-x="518" d="M49 510q0 41 31 82q41 55 100 119l127 135h162l-121 -158q-78 -98 -78 -162l6 -51q18 -53 47 -95t146 -183h-199l-106 120q-115 123 -115 193z" />
<glyph unicode="=" d="M147 489v179h1035v-179h-1035zM147 809v178h1035v-178h-1035z" />
<glyph unicode="&#x3e;" horiz-adv-x="518" d="M49 846h199l106 -119q115 -123 115 -192q0 -43 -29 -86q-37 -51 -102 -117l-127 -135h-160l121 157q45 57 60.5 90t15.5 72l-6 51q-18 55 -46 95.5t-147 183.5z" />
<glyph unicode="?" horiz-adv-x="798" d="M-49 1264l125 204q72 18 126 27.5t99 9.5q201 0 328 -106.5t127 -278.5q0 -170 -154 -309l-115 -104q-88 -80 -129 -166q-25 -43 -24 -113l2 -63h-164l-2 63q0 61 4 76.5t20.5 57.5t37 75t49.5 63l86 88q150 143 149 279q0 115 -75.5 192.5t-188.5 77.5q-37 0 -92.5 -10 t-98 -23t-110.5 -40zM121 119q0 61 45 106t106 45t102.5 -45t41.5 -108q0 -59 -41 -102.5t-103 -43.5q-61 0 -106 43.5t-45 104.5z" />
<glyph unicode="@" horiz-adv-x="1708" d="M119 737q0 264 149 467q94 129 223.5 205t272.5 92q23 4 47.5 4h38.5q270 0 445 -177t175 -458q0 -53 -10 -129q-31 -197 -124 -313.5t-208 -132.5q-10 -2 -32 -2q-78 0 -129 53t-43 127q-12 -41 -41 -74q-74 -86 -170 -86q-47 0 -101 25q-150 70 -149 362l8 74 q20 131 71.5 228.5t125.5 152.5q82 57 157 57q117 0 174 -112l11 -23l18 127l98 -2l-79 -446l-29 -185q-2 -14 -3 -30.5t-1 -24.5q0 -37 10 -74q20 -68 88 -67q14 0 31 6q33 12 55.5 30.5t65.5 71.5q37 43 62.5 112t39.5 165q4 29 6 53.5t2 56.5q0 244 -144.5 396.5 t-371.5 152.5q-55 0 -98 -8q-227 -35 -380 -226.5t-153 -449.5q0 -94 25 -196q57 -225 219 -356.5t365 -131.5q86 0 161.5 20.5t155.5 69.5l102 74q66 55 115 115l47 -54l-53 -59q-121 -123 -255 -183.5t-282 -60.5q-276 0 -473.5 185.5t-230.5 484.5q-2 25 -3 45.5t-1 48.5 zM571 594q0 -37 7.5 -71t19.5 -58q35 -74 119 -74q55 0 96 39q29 27 49.5 63.5t44.5 108.5q10 27 21.5 71t19.5 93l4 22l13 84q6 43 6 78q0 76 -44 125t-102 49q-74 0 -135 -75q-43 -55 -80 -166q-16 -51 -24 -102.5t-11.5 -92.5t-3.5 -94z" />
<glyph unicode="A" horiz-adv-x="1505" d="M-70 0q86 47 117 78l51 69l482 1168q12 29 12 59q0 31 -49 103h327l535 -1330l16 -28l35 -41q18 -18 44 -35.5t75 -42.5h-475q76 49 76 104q0 27 -7 43l-163 428h-547l-164 -428q-6 -16 -6 -41q0 -57 69 -106h-428zM518 725h430l-213 563z" />
<glyph unicode="B" horiz-adv-x="1220" d="M57 0q59 43 78 78l17 41l4 28l2 1174q0 47 -15.5 74.5t-72.5 81.5h346q137 0 225 -12.5t168 -43.5q203 -86 203 -291q0 -94 -56 -165q-20 -27 -45.5 -44.5t-83.5 -43.5q72 -14 111 -31t76 -45q70 -49 106.5 -130t36.5 -179q0 -88 -30.5 -168t-92.5 -148 q-94 -102 -229 -139t-420 -37h-328zM371 176q120 -24 192 -24h6q154 0 257.5 89t103.5 224q0 94 -53.5 164.5t-139.5 95.5q-98 20 -254 20l-112 -4v-565zM373 866l47 -4q184 0 266 71t82 165q0 111 -79 178t-206 67l-77 -4l-33 -2v-471z" />
<glyph unicode="C" horiz-adv-x="1447" d="M59 713q0 178 74 333.5t213 268.5q238 190 641 190q68 0 118 -6t150 -29v-253l-47 30q-129 82 -325 82q-270 0 -440.5 -164t-170.5 -428q0 -246 154 -405q86 -90 219 -146.5t264 -56.5q279 0 559 199l-168 -328q-145 -23 -213.5 -29t-164.5 -6q-117 0 -204 12.5 t-177 45.5q-215 72 -348.5 262t-133.5 428z" />
<glyph unicode="D" horiz-adv-x="1495" d="M25 1477h503q213 0 355.5 -37t267.5 -123q285 -195 285 -559q0 -176 -68 -325.5t-194 -258.5q-113 -94 -262.5 -134t-383.5 -40h-501q29 23 44 42t22 31.5t16 47.5l4 31l8 1167q0 37 -19 74q-10 16 -24 31.5t-53 52.5zM338 180q49 -10 97 -14t106 -4q338 0 499 164 q74 72 117 188.5t43 239.5q0 268 -180 415.5t-510 147.5q-94 -1 -172 -19v-1118z" />
<glyph unicode="E" horiz-adv-x="1064" d="M55 0q33 23 48.5 40t27.5 38q20 33 21 69l2 1172q0 45 -13.5 71.5t-66.5 86.5h780v-285q-39 63 -75 89t-85 26h-82h-241v-433h350v-231q-35 47 -81 65.5t-132 18.5h-141v-553q94 -14 137 -18t112 -4l95 2q109 0 170 25.5t168 105.5l-97 -285h-897z" />
<glyph unicode="F" horiz-adv-x="856" d="M49 0q35 25 52.5 40t29.5 36l14 43q2 4 3.5 12t3.5 16l2 1170l-7 29q-2 27 -9 45t-54 86h768v-283q-43 74 -87 95.5t-147 21.5h-247v-432h348v-234q-47 53 -84 67.5t-137 14.5h-127v-580l8 -28l14 -43q16 -31 82 -76h-426z" />
<glyph unicode="G" horiz-adv-x="1564" d="M59 719q0 197 88.5 364.5t251.5 278.5q113 78 249 112.5t331 34.5h7q128 0 276 -36v-261l-56 37q-121 78 -309 78q-276 0 -446 -159.5t-170 -422.5q0 -270 183 -441t472 -171q53 0 110.5 10.5t153.5 38.5v428q0 37 -13 69t-67 83h307v-735l-104 -25q-201 -39 -387 -39 q-254 0 -432 74q-203 90 -324 274.5t-121 407.5z" />
<glyph unicode="H" horiz-adv-x="1507" d="M53 0q35 25 49.5 39t28.5 39l14 41l7 28v1172q0 43 -15.5 69.5t-77.5 88.5h394q-33 -37 -45.5 -52.5t-22.5 -33.5l-12 -43l-6 -29v-434h774v434l-4 29l-15 43q-8 20 -65 86h391q-57 -57 -73.5 -86t-16.5 -72v-1172l6 -28q8 -29 16 -41q10 -29 74 -78h-410q61 43 78 78 q20 35 21 69v574h-778v-574q0 -12 5 -30.5t14 -34.5t19 -31q18 -23 60 -51h-410z" />
<glyph unicode="I" horiz-adv-x="536" d="M53 0q57 41 80 78l14 41q2 4 3.5 13t3.5 15l4 1172v33q-6 25 -15 41q-16 31 -69 84h383q-29 -29 -43.5 -46.5t-26.5 -46t-12 -65.5v-1172q0 -12 6 -32.5t19.5 -44t84.5 -70.5h-432z" />
<glyph unicode="J" horiz-adv-x="522" d="M-61 -492l53 52q35 37 55.5 65.5t38.5 67.5q39 74 54.5 142.5t15.5 162.5v1321l-4 29l-15 45q-6 20 -61 84h362q-41 -45 -56 -81t-15 -77v-1501q0 -104 -111.5 -185.5t-316.5 -124.5z" />
<glyph unicode="K" horiz-adv-x="1314" d="M49 0q33 23 52.5 40t28.5 35.5t15.5 37t6.5 34.5l2 1172q0 45 -13.5 71.5t-66.5 86.5h395q-25 -25 -51 -54q-18 -20 -25.5 -31.5t-13.5 -43.5l-6 -29v-1172q0 -78 98 -147h-422zM385 766l428 553l12 29q12 23 13 47q0 31 -52 82h416l-567 -680l39 -54q143 -190 256 -321 q100 -117 198 -211l138 -117q84 -59 172 -94h-244l-78 2q-39 0 -80 23q-72 31 -135 94t-182 219q-20 33 -258 334z" />
<glyph unicode="L" horiz-adv-x="999" d="M55 0q55 43 74 78l14 41l4 28l7 1170q0 45 -15 74q-4 14 -18 32q-2 2 -41 54h373l-43 -50q-23 -25 -25 -36l-12 -45l-8 -29v-1143q90 -12 135 -16t102 -4l123 6q113 10 171 32.5t157 90.5l-101 -283h-897z" />
<glyph unicode="M" horiz-adv-x="2027" d="M0 0q39 25 57.5 39t30.5 32.5t19.5 38t11.5 37.5l170 1170l2 12q0 43 -13.5 68.5t-66.5 79.5h367l458 -1096l426 1096h346q-37 -47 -49 -76t-12 -70l2 -12l141 -1172l11 -28q10 -29 23 -44.5t35.5 -32.5t68.5 -42h-424q61 61 61 139v8l-109 1084l-489 -1256 q-39 18 -51 27.5t-35 34t-45 61.5l-33 68l-35 76l-419 985l-144 -1080v-8q0 -45 16.5 -72.5t65.5 -66.5h-387z" />
<glyph unicode="N" horiz-adv-x="1533" d="M59 0q33 23 48.5 39t31 43t15.5 65l2 1172v33q-6 25 -16.5 47t-63.5 78h254l874 -1104v946l-4 29l-10 43q-10 18 -22.5 35.5t-43.5 50.5h334q-51 -57 -63.5 -88t-12.5 -70v-1378q-63 29 -129 75q-35 29 -51 43q-35 29 -51 45l-78 86l-47 56l-692 870v-969 q0 -39 19.5 -72.5t82.5 -74.5h-377z" />
<glyph unicode="O" horiz-adv-x="1677" d="M59 748q0 338 220.5 549.5t568.5 211.5q344 0 557 -213t213 -559q0 -352 -211 -563t-563 -211q-350 0 -567.5 217.5t-217.5 567.5zM289 731q0 -266 171 -443t417 -177q225 0 371.5 166.5t146.5 427.5q0 272 -162 457.5t-402 185.5q-244 0 -393 -162t-149 -428v-27z" />
<glyph unicode="P" horiz-adv-x="1034" d="M63 0q53 43 70 78q6 12 12.5 34.5t6.5 34.5l2 1172v8v21q0 16 -11.5 40.5t-22.5 38t-46 50.5h420q262 0 402 -97.5t140 -277.5q0 -166 -147.5 -278.5t-366.5 -112.5q-41 0 -56 2t-58 18q90 12 140 25.5t99 42.5q164 94 164 266q0 119 -88 194.5t-225 75.5l-82 -2l-41 -4 v-1182q0 -35 16 -71q10 -18 27.5 -37t46.5 -39h-402z" />
<glyph unicode="Q" horiz-adv-x="1681" d="M59 741q0 346 219.5 557t579.5 211q342 0 555 -215t213 -561q0 -279 -141 -485q-35 -51 -71 -84t-114 -86l123 -94q100 -78 151.5 -110t119 -62.5t112.5 -41t111 -10.5h57q-90 -76 -151.5 -104.5t-136.5 -28.5q-84 0 -198 49.5t-224 135.5l-195 149l-29 12 q-129 -12 -200 -12q-342 0 -561.5 219t-219.5 561zM301 750q0 -123 30.5 -220.5t100.5 -189.5q82 -104 186 -166q125 -65 295 -65h5q72 0 123 16t118 61q88 55 146 136q100 141 100 368q0 285 -152 471.5t-385 186.5q-268 0 -417.5 -158t-149.5 -440z" />
<glyph unicode="R" horiz-adv-x="1251" d="M63 0q49 35 71 68.5t22 78.5l-2 1170l-7 29l-12 43q-10 23 -26 41q-27 29 -43 47h442q233 0 373.5 -105.5t140.5 -279.5q0 -143 -96 -240q-53 -49 -112.5 -76.5t-174.5 -54.5l147 -180q51 -66 136 -156q76 -80 174 -176q88 -84 141 -124t143 -85h-237h-62q-29 0 -53 11.5 t-70 43.5l-40 29q-96 82 -234 268l-219 295l-78 117q403 55 404 317q0 240 -349 240l-75 -2v-1172q0 -43 20.5 -74.5t75.5 -72.5h-400z" />
<glyph unicode="S" horiz-adv-x="1054" d="M8 301q80 -49 117 -66.5t119 -41.5q53 -18 115.5 -28.5t105.5 -10.5q129 0 218 65.5t89 161.5q0 80 -47 131q-70 66 -201 115l-198 78q-299 113 -299 370q0 186 153.5 301t403.5 115q133 0 278 -39v-260q-98 76 -163.5 102.5t-153.5 26.5q-131 0 -211 -59.5t-80 -157.5 q0 -70 53 -122t176 -103l185 -76q184 -74 261 -161t77 -222q0 -203 -164 -328t-432 -125q-63 0 -152 10q-66 10 -90.5 16.5t-83.5 29.5z" />
<glyph unicode="T" horiz-adv-x="1126" d="M-35 1200l88 277h1110l-92 -295q-12 23 -31 41q-8 8 -14 16q-70 63 -242 64l-112 -9v-1147l6 -28l14 -41q16 -31 80 -78h-412q55 41 70 78l14 41l5 28v1145q-78 6 -105 6h-22l-111 -6q-84 0 -150 -32q-28 -15 -96 -60z" />
<glyph unicode="U" horiz-adv-x="1517" d="M63 1477h404q-90 -76 -90 -154v-829q0 -113 39 -189q41 -72 136 -117t214 -45q182 0 282.5 96.5t100.5 272.5v815q0 78 -78 150h385q-57 -49 -73.5 -83t-16.5 -67v-1175q0 -47 20.5 -77t83.5 -75h-323v121q-162 -156 -455 -156q-139 0 -258 46t-188 128 q-59 72 -75.5 137.5t-16.5 227.5v823q0 33 -19 70q-8 18 -24.5 36.5t-47.5 43.5z" />
<glyph unicode="V" horiz-adv-x="1249" d="M-119 1477h305l461 -1244l400 1086q8 14 8 39q0 31 -13.5 52.5t-66.5 66.5h346l-614 -1524q-72 31 -93.5 42t-56.5 36q-74 47 -135 205l-424 1083q-16 39 -41 72q-10 14 -76 86z" />
<glyph unicode="W" horiz-adv-x="2127" d="M-131 1477h315l437 -1221l366 1061l2 12q0 74 -123 148h273l444 -1252l381 1092l2 33q0 35 -15.5 58.5t-70.5 68.5h332l-561 -1536l-29 10l-96 49q-100 55 -135 154l-31 94l-287 764l-383 -1059q-51 23 -80.5 39t-62.5 41q-84 63 -107 125l-24 67l-418 1094l-16 29 q-10 23 -23.5 41t-89.5 88z" />
<glyph unicode="X" horiz-adv-x="1417" d="M-55 0l622 776l-385 541l-24 29q-31 35 -40 43t-52 38l-64 50h346l363 -525l284 367q20 27 21 63q0 33 -82 95h405l-526 -674l469 -656l25 -28q12 -14 25.5 -25.5t21.5 -17.5q35 -29 127 -76h-369l-440 627l-377 -480q-20 -20 -21 -57q0 -23 22.5 -43t82.5 -47h-434z" />
<glyph unicode="Y" horiz-adv-x="1124" d="M-141 1477h352l412 -648l333 490q20 27 21 63q0 33 -68 95h365l-567 -820v-510q0 -45 20.5 -76.5t75.5 -70.5h-414q61 45 74 78l16 41l6 28l4 515l-444 657l-25 29q-47 49 -96 82z" />
<glyph unicode="Z" horiz-adv-x="1337" d="M-23 0l867 1280q-61 6 -143.5 13t-125.5 7h-56.5t-84.5 -8q-104 -10 -165.5 -28.5t-178.5 -73.5l129 287h1014l-875 -1311q129 -14 207 -18.5t162 -4.5q178 0 293 25t297 104l-117 -272h-1223z" />
<glyph unicode="[" horiz-adv-x="442" d="M121 -289v1858h256v-154h-25q-41 0 -41 -104v-1340q0 -104 41 -104h25v-156h-256z" />
<glyph unicode="\" horiz-adv-x="632" d="M109 1475h110l258 -1475h-110z" />
<glyph unicode="]" horiz-adv-x="442" d="M70 -133h22q39 0 39 102v1342q0 104 -39 104h-22v154h252v-1858h-252v156z" />
<glyph unicode="^" horiz-adv-x="598" d="M4 1137l148 317h297l147 -315h-131l-162 247l-166 -249h-133z" />
<glyph unicode="_" horiz-adv-x="1032" d="M109 0h737v-51h-737v51z" />
<glyph unicode="`" horiz-adv-x="454" d="M2 1458h193l143 -313h-127z" />
<glyph unicode="a" horiz-adv-x="1069" d="M45 311q0 231 358 295l115 21q98 18 142.5 50t44.5 85q0 63 -48.5 99t-130.5 36q-49 0 -106 -14q-67 -13 -219 -68l166 232q77 22 147 22h6q111 0 195 -25q66 -14 125 -65q49 -41 63.5 -80t14.5 -133v-475q0 -66 13 -94.5t54 -44.5q37 -18 123 -19h20l-122 -151l-50 -7 q-96 0 -173.5 63.5t-77.5 145.5l2 80v277l-60 -23l-106 -22q-63 -10 -116.5 -28.5t-86.5 -37.5q-70 -43 -70 -135q0 -80 60.5 -127t165.5 -47q51 0 79.5 5t116.5 32l-117 -158q-111 -33 -174 -33q-139 0 -246.5 105.5t-107.5 238.5z" />
<glyph unicode="b" horiz-adv-x="1222" d="M78 1466l92 -2q47 0 84 6.5t111 26.5v-1329q119 -39 200 -39q166 0 279.5 118t113.5 288q0 156 -98 262t-244 106q-55 0 -93 -8t-134 -41l139 182q86 12 129 13q207 0 356.5 -147.5t149.5 -354.5q0 -246 -178 -410t-448 -164q-156 0 -295 27l-113 23l-45 8 q53 35 63.5 60.5t10.5 117.5v1044q0 92 -12.5 124t-67.5 89z" />
<glyph unicode="c" horiz-adv-x="1034" d="M61 500q0 246 176.5 405.5t446.5 159.5q57 0 91 -4.5t106 -22.5v-237l-31 28q-88 68 -223 68q-150 0 -244 -106.5t-94 -276.5q0 -176 116.5 -286.5t305.5 -110.5q104 0 206.5 38t151.5 95l-158 -250q-66 -20 -119 -29.5t-112 -9.5q-266 0 -442.5 153.5t-176.5 385.5z" />
<glyph unicode="d" horiz-adv-x="1302" d="M59 504q0 229 160 395t383 166q100 0 161.5 -19.5t182.5 -91.5v299q0 102 -8 131t-53 80l63 -2q76 0 101.5 5.5t97.5 29.5v-1307q0 -53 10 -100q10 -29 23.5 -46t48.5 -44h-291v520q0 176 -90 287t-238 111q-133 0 -229 -106.5t-96 -254.5q0 -160 77 -262 q121 -162 324 -162q59 0 105.5 12.5t126.5 51.5l-152 -209q-96 -12 -160 -13q-219 0 -383 158t-164 371z" />
<glyph unicode="e" horiz-adv-x="1116" d="M59 524q0 231 151.5 385t383.5 154q223 0 344 -137.5t121 -397.5h-770q0 -80 10 -117.5t39 -93.5q47 -92 145.5 -145t225.5 -53q49 0 99 10t91 25.5t61.5 27t104.5 64.5l-147 -248q-49 -18 -100.5 -26.5t-115.5 -8.5q-293 0 -468 152.5t-175 408.5zM317 682h502 q0 104 -67.5 172t-167.5 68q-131 -1 -211 -97q-29 -31 -39 -58.5t-17 -84.5z" />
<glyph unicode="f" horiz-adv-x="555" d="M70 909l84 131l-2 72q0 158 134 268.5t330 110.5q35 0 80 -7t80 -11l-164 -185q-31 31 -54 41t-56 10q-141 0 -142 -211l5 -81h262v-211q-37 37 -49 43q-40 28 -128 28h-6h-82v-717v-47q0 -23 12.5 -54.5t24 -46.5t45.5 -42h-368q51 41 65.5 73.5t14.5 116.5l-2 719h-84z " />
<glyph unicode="g" horiz-adv-x="1193" d="M-16 -217q0 166 264 166l90 -2q-68 -23 -94.5 -47.5t-26.5 -65.5q0 -96 110.5 -159.5t276.5 -63.5q170 0 266.5 67.5t96.5 188.5q0 104 -69 179t-179 75l-86 10q-176 16 -176 152q0 31 13 44t69 40q129 63 185 127.5t56 150.5q0 111 -81 183.5t-203 72.5 q-102 0 -172 -61.5t-70 -153.5q0 -100 82 -170q27 -23 65.5 -44t110.5 -52l-98 -101q-115 33 -178.5 63t-109.5 73t-72.5 103t-26.5 124q0 100 67 197q129 176 381 176q31 0 83 -2t99 -9l213 -10q111 0 308 27l-82 -156l-238 13q55 -39 82 -70q72 -76 72 -182 q0 -98 -60 -170q-31 -35 -82 -76t-98 -64q-57 -31 -57 -51q0 -14 19.5 -27.5t49.5 -21.5q174 -37 236.5 -60.5t99.5 -62.5t59.5 -107.5t22.5 -138.5q0 -201 -177 -318.5t-476 -117.5q-248 0 -406.5 93.5t-158.5 238.5z" />
<glyph unicode="h" horiz-adv-x="1228" d="M86 0q49 41 59.5 81t10.5 73v36v1057q0 111 -11.5 142.5t-58.5 78.5l88 -2q59 0 86 6.5t100 36.5v-565q16 16 34 32.5t40 35.5q91 69 244 69h4q106 0 201.5 -40t148.5 -130q41 -70 41 -161v-107v-453q0 -63 12 -98q6 -31 16.5 -48t43.5 -44h-357q55 45 68 92q6 14 8 27.5 t2 27.5v43v472q0 82 -8 111.5t-37 66.5q-61 78 -190 78q-72 0 -135.5 -27t-96.5 -70q-23 -25 -31 -65.5t-8 -124.5v-441v-47l5 -51q10 -45 57 -92h-336z" />
<glyph unicode="i" horiz-adv-x="522" d="M82 0q35 27 47 43t23 47q2 4 5 23.5t3 29.5l2 41l-2 637q0 106 -10.5 141t-61.5 91l102 -6q37 0 72 8t109 30v-895v-47q0 -25 9 -54.5t20.5 -44.5t45.5 -44h-364zM125 1300q0 61 41 102.5t102 41.5q55 0 93 -42t38 -102q0 -55 -41 -94t-100 -39q-53 0 -93 38t-40 95z" />
<glyph unicode="j" horiz-adv-x="516" d="M-31 -524q88 53 121 104q33 45 47 109q12 43 14.5 82t2.5 163v914q0 92 -11.5 120.5t-64.5 75.5l108 -4q41 0 76 8.5t98 36.5v-1159q0 -150 -11 -204t-55 -110t-129 -97t-163 -41zM119 1303q0 55 42 95t97 40q53 0 91 -38t38 -93q0 -59 -40 -99.5t-97 -40.5 q-53 0 -92 39.5t-39 96.5z" />
<glyph unicode="k" horiz-adv-x="1058" d="M90 0q29 25 40 42t22 48l6 64v36l-2 1125q0 70 -10.5 96.5t-53.5 65.5q115 0 146.5 4t134.5 30v-1321v-47l6 -51q8 -31 19.5 -48t39.5 -44h-348zM377 592l254 282q63 68 63 121q0 31 -28 52h342l-402 -441l371 -430q72 -80 103.5 -107.5t101.5 -68.5h-224h-34 q-84 0 -117 47l-64 80z" />
<glyph unicode="l" horiz-adv-x="514" d="M84 0q14 12 28.5 23.5t20.5 23.5q12 16 20.5 44t8.5 54v45l-2 1108q0 61 -12.5 93t-53.5 77l82 -2q68 0 92.5 5.5t91.5 27.5v-1309q0 -29 3.5 -52t9.5 -49t18 -44t47 -45h-354z" />
<glyph unicode="m" horiz-adv-x="1861" d="M78 0q31 25 45 45.5t23.5 49t9.5 69.5v26l2 633q0 106 -10.5 140t-61.5 81l107 -6q59 0 169 35v-92l64 47q35 20 100.5 36.5t116.5 16.5q35 0 66.5 -6t74.5 -18q61 -23 98.5 -47.5t94.5 -83.5q43 47 65 63q111 88 269 88q100 0 192 -41q72 -33 125 -88 q49 -55 65.5 -109.5t16.5 -166.5v-482v-47l6 -51q8 -29 18.5 -46t39.5 -46h-347q31 25 43.5 43t22.5 47q4 16 6 44t2 56v486q0 70 -12 106.5t-49 71.5q-59 53 -166 53q-240 0 -240 -231v-486q0 -63 9.5 -97t20.5 -50t44 -43h-360q59 45 70 89t11 101v472q0 131 -57 186 q-55 61 -176 61q-131 0 -193 -73q-43 -49 -43 -156v-490q0 -31 2.5 -51t10.5 -56t61 -83h-356z" />
<glyph unicode="n" horiz-adv-x="1232" d="M86 0q49 41 59.5 84t10.5 104v639q0 96 -10.5 128t-59.5 81l33 -2q78 0 117.5 6.5t123.5 30.5v-133l70 61q104 76 256 76q186 0 288.5 -98t102.5 -283v-504v-47q0 -14 3 -25.5t9.5 -33t18.5 -38.5t45 -46h-360q31 25 43 43t20 46t10 42t2 59v445q0 82 -8 123t-33 73 q-55 78 -192 78q-139 0 -215 -65q-33 -33 -45.5 -75t-12.5 -132l3 -447l6 -47l8 -51q4 -27 16.5 -46t42.5 -46h-352z" />
<glyph unicode="o" horiz-adv-x="1300" d="M61 535q0 250 168 405.5t437 155.5q256 0 413.5 -156t157.5 -416q0 -262 -203 -434q-147 -127 -399 -127q-258 0 -416 156t-158 416zM276 524q0 -180 113 -294.5t283 -114.5q150 0 248 116.5t98 296.5q0 172 -106.5 289t-268.5 117q-160 0 -263.5 -111.5t-103.5 -283.5 v-15z" />
<glyph unicode="p" horiz-adv-x="1282" d="M80 1038l90 -2q80 0 186 39v-143q14 12 38 31.5t36 27.5q113 80 268 80q217 0 371 -153.5t154 -372.5q0 -233 -158 -401.5t-381 -168.5q-29 0 -60.5 4.5t-78.5 16.5l-133 174q131 -53 215 -53q80 0 151.5 26.5t117.5 75.5t77 132t31 165q0 174 -103.5 294t-253.5 120 q-137 0 -213 -86t-76 -244v-926q0 -61 10.5 -95t24 -52.5t47.5 -42.5h-358q33 27 45 43t21.5 47t9.5 68l-2 32v1133q0 106 -17 156q-8 24 -59 75z" />
<glyph unicode="q" horiz-adv-x="1216" d="M59 498q0 213 156 381q168 188 467 188q74 0 101.5 -3t97.5 -15q55 -6 163 -27q54 -10 93 -18q-47 -35 -59.5 -71t-12.5 -134v-1123l-2 -43l8 -53q12 -33 23.5 -51t44.5 -45h-357q51 45 64 96q4 14 7 32.5t3 63.5l2 1198q-66 16 -105.5 22.5t-78.5 6.5 q-182 0 -296 -113.5t-114 -295.5q0 -154 99.5 -257.5t244.5 -103.5q55 0 94 8.5t127 38.5l-145 -190q-72 -14 -117 -15q-215 0 -361.5 150.5t-146.5 372.5z" />
<glyph unicode="r" horiz-adv-x="688" d="M82 0q31 25 43 43t22.5 50t10.5 97v633q0 100 -10.5 134t-57.5 81l76 -2q61 0 89 6.5t110 38.5v-159l41 41q47 43 124.5 73.5t143.5 30.5l45 -4v-225q-35 33 -61.5 43t-88.5 10q-205 0 -204 -246v-455v-47q0 -31 10 -53q8 -33 17 -48t40 -42h-350z" />
<glyph unicode="s" horiz-adv-x="913" d="M23 236q37 -23 64.5 -37.5t53.5 -26.5q76 -31 160 -49.5t162 -18.5q227 0 227 164q0 68 -47 99q-37 29 -96 45l-78 20q-137 39 -195.5 60.5t-105.5 57.5t-74.5 91t-27.5 115q0 90 51 162.5t139 109.5q49 18 109.5 26.5t148.5 8.5q70 0 89.5 -2t121.5 -21v-194 q-86 41 -149.5 59.5t-114.5 18.5q-84 0 -135.5 -33t-51.5 -90t43 -94q23 -18 50.5 -29.5t107.5 -32.5q225 -53 311 -127t86 -213q0 -150 -111.5 -249t-279.5 -99q-117 0 -211 16l-102 21l-51 6z" />
<glyph unicode="t" horiz-adv-x="608" d="M25 907v82l30 -2q63 0 105.5 42t57.5 94.5t15 148.5l-4 82h127v-307h279v-220l-17 19l-34 31q-34 28 -106 28h-5h-115v-596q0 -59 19 -90q45 -90 203 -90l36 2l-129 -162q-53 14 -87.5 24.5t-67.5 24.5q-57 25 -101.5 66t-60.5 93t-16 145v585h-129z" />
<glyph unicode="u" horiz-adv-x="1232" d="M80 1044h53q74 0 110 6.5t119 34.5v-708q0 -55 8.5 -91t26.5 -65q57 -86 219 -86q119 0 197 62q35 31 48 71.5t13 124.5v455q0 86 -10 115.5t-61 80.5l61 -2q61 0 98 6.5t115 32.5v-891v-49t10 -51q6 -33 15.5 -45t44.5 -45h-279v92q-35 -33 -49 -43t-63 -34.5 t-100.5 -37t-104.5 -12.5q-393 0 -393 424v449q0 90 -12.5 122.5t-65.5 83.5z" />
<glyph unicode="v" horiz-adv-x="1009" d="M-63 1042h45q88 0 114.5 4.5t120.5 30.5l301 -835l262 604l19.5 52t13.5 54q0 29 -16 47l-31 37l-6 11h303l-510 -1108q-31 6 -43 14t-55 48t-65.5 72.5t-43.5 88.5l-280 702q-31 84 -51.5 110.5t-77.5 67.5z" />
<glyph unicode="w" horiz-adv-x="1732" d="M-63 1044l63 -2q68 0 94.5 4.5t106.5 26.5l303 -801l225 578q23 53 29 74.5t6 38.5q0 27 -7 37t-44 36l-13 11h295l277 -791l239 588l35 80l6 39q0 27 -9 40t-50 44h293l-477 -1113q-145 84 -174 158l-33 70l-29 63l-199 518l-319 -813l-16 13q-47 27 -54 30 q-23 14 -32 23q-57 39 -99 141l-22 58l-256 657q-39 100 -57.5 126.5t-81.5 65.5z" />
<glyph unicode="x" horiz-adv-x="1073" d="M-59 0l471 537l-277 362q-33 43 -65.5 77t-77.5 71h299l252 -347l166 191q16 20 28.5 48t12.5 46t-8.5 26.5t-47.5 35.5h389l-430 -496l275 -361q63 -84 98 -115.5t109 -74.5h-328l-291 391l-217 -252q-49 -59 -49 -76q0 -45 45 -63h-354z" />
<glyph unicode="y" horiz-adv-x="1054" d="M-82 -510l182 201q63 -51 125 -51q61 0 104.5 47t84.5 157l51 140l-39 106l-47 107l-246 569q-70 158 -106 201q-12 20 -90 73l116 -6q63 0 172 37l348 -817l234 590q31 78 31 112q0 43 -52 91h338l-534 -1264q-76 -180 -184.5 -252t-307.5 -72q-45 0 -79.5 6.5 t-100.5 24.5z" />
<glyph unicode="z" horiz-adv-x="1069" d="M-12 0l657 893l-160 6q-117 0 -190 -16q-109 -14 -246 -74l131 238h826l-650 -889q100 -10 155.5 -14.5t104.5 -4.5q129 0 250 25q66 14 111 30.5t115 51.5l-136 -246h-968z" />
<glyph unicode="{" horiz-adv-x="661" d="M109 737q55 0 89.5 41t34.5 105v690q0 127 156 127h115v-64h-23q-76 0 -98.5 -24.5t-22.5 -102.5v-616q0 -63 -36.5 -106.5t-98.5 -49.5q57 -6 96 -49t39 -106v-617q0 -80 21.5 -103.5t99.5 -23.5h23v-63h-115q-78 0 -117 32.5t-39 94.5v690q0 98 -77 133q-16 8 -47 12z " />
<glyph unicode="|" horiz-adv-x="354" d="M109 0v1475h110v-1475h-110z" />
<glyph unicode="}" horiz-adv-x="661" d="M109 -162h22q76 0 98.5 24.5t22.5 102.5v617q0 63 37 106t96 49q-59 6 -96 49t-37 107v616q0 78 -22.5 102.5t-98.5 24.5h-22v64h114q154 0 154 -127v-690q0 -63 34.5 -104.5t92.5 -41.5q-33 -4 -47 -12q-80 -35 -80 -133v-690q0 -127 -154 -127h-114v63z" />
<glyph unicode="~" horiz-adv-x="841" d="M35 1548l74 205q80 33 159 33q80 0 170 -31l56 -18l43 -13l53 -6q25 0 72 13q70 18 147 67l-74 -209q-59 -27 -95 -35t-85 -8q-51 0 -80 6q-41 14 -65 21l-64 16q-25 8 -54.5 12.5t-49.5 4.5q-18 0 -42 -2t-42 -9q-39 -6 -61.5 -14t-61.5 -33z" />
<glyph unicode="&#xa1;" horiz-adv-x="481" d="M92 1358q0 63 44 105t108 42q59 0 101 -42t42 -103q0 -63 -42 -107.5t-103 -44.5t-105.5 44.5t-44.5 105.5zM119 0l43 1118h166l45 -1118h-254z" />
<glyph unicode="&#xa2;" horiz-adv-x="1034" d="M61 500q0 213 158 381q78 82 154 118.5t219 61.5v213h156v-211q45 -4 63 -7t70 -18v-237q-20 20 -37 28l-90 52l-4 -764q61 12 79 16q47 10 99.5 28.5t81 35t59.5 53.5l-158 -250q-53 -16 -79.5 -22.5t-77.5 -12.5v-164h-162v166q-164 31 -242 68t-153 117 q-135 145 -136 348zM297 530q0 -158 82 -262q41 -51 81 -77.5t130 -61.5v772q-158 -41 -219 -127q-74 -92 -74 -244z" />
<glyph unicode="&#xa3;" horiz-adv-x="1153" d="M63 186q33 -14 66 -14q90 0 144.5 54.5t54.5 146.5q0 49 -8.5 85t-45.5 128h-155v176h82l-43 90q-80 182 -80 311q0 158 115.5 246t324.5 88q133 0 307 -49l107 -277q-66 43 -107 63.5t-80 33.5q-86 31 -184 30q-100 0 -158.5 -44t-58.5 -119q0 -49 23.5 -126t87.5 -245 h442v-172h-377q20 -66 26.5 -102.5t6.5 -83.5q0 -92 -26.5 -141.5t-104.5 -94.5q115 -10 160 -12t120 -2l111 4q104 0 197 22q84 27 139 41l-62 -223h-976z" />
<glyph unicode="&#xa4;" horiz-adv-x="1011" d="M109 438l133 133q-59 76 -60 166q0 92 58 168l-131 125l14 17l12 16l15 14l16 15l133 -129q74 57 166 57q98 0 172 -55l129 129l18 -15q25 -20 43 -49l-133 -125q53 -74 54 -168q0 -94 -56 -168l133 -133l-14 -14l-12 -12l-19 -17l-16 -14l-129 133q-72 -57 -168 -57 t-168 57l-133 -131q-32 24 -57 57zM274 737q0 -80 56.5 -136t134.5 -56q80 0 136 56t56 136t-56 136.5t-136 56.5t-135.5 -55.5t-55.5 -137.5z" />
<glyph unicode="&#xa5;" horiz-adv-x="1507" d="M47 1477h352l412 -648l334 490q8 16 14 31.5t6 31.5q0 33 -67 95h364l-461 -668h316v-125h-397l-23 -27v-39h420v-124h-424v-347q0 -78 98 -147h-413q33 25 48 41t25 37l15 41l8 28v357l-404 4l2 137h402v17l-12 24h-386v131h299l-346 502l-20 29q-31 33 -45 45t-51 37z " />
<glyph unicode="&#xa7;" horiz-adv-x="1210" d="M59 600q0 80 33 168q27 72 59.5 118t110.5 120l-29 41q-41 72 -40 145q0 131 114.5 223t278.5 92q49 0 113.5 -14t132 -40t112.5 -56.5t115 -98.5l-88 -321q-23 154 -75 232.5t-126 121.5t-143 43q-98 0 -158.5 -42t-60.5 -107q0 -68 100 -148l481 -379 q160 -127 160 -284q0 -61 -24.5 -138t-57.5 -130.5t-115 -137.5q27 -43 39.5 -76.5t12.5 -74.5q0 -141 -119 -239.5t-289 -98.5q-92 0 -184 35q-72 25 -123 57.5t-135 107.5l86 324q20 -117 37.5 -165t62.5 -105.5t108.5 -91t126.5 -33.5q90 0 150.5 48t60.5 118 q0 39 -20.5 67.5t-75.5 71.5l-489 379q-27 23 -49.5 42t-34.5 36q-57 74 -58 190zM225 702q0 -111 92 -178l555 -436q63 78 86 123t23 100q0 119 -115 207l-532 412q-39 -43 -59.5 -74t-28.5 -56.5t-14.5 -51t-6.5 -46.5z" />
<glyph unicode="&#xa8;" horiz-adv-x="575" d="M-51 1272q0 53 39 92t96 39q53 0 91 -38t38 -93q0 -53 -38 -91t-95 -38q-55 0 -93 38t-38 91zM362 1272q0 53 37 92t93 39q55 0 95 -38t40 -93t-37 -92t-94 -37q-55 0 -94.5 37t-39.5 92z" />
<glyph unicode="&#xa9;" horiz-adv-x="1908" d="M119 739q0 317 223 540.5t541 223.5q317 0 540.5 -223t223.5 -541q0 -317 -223.5 -540.5t-540.5 -223.5t-540.5 223.5t-223.5 540.5zM209 739q0 -137 51 -262t147.5 -223t219.5 -148.5t256 -50.5q131 0 255 50.5t221 148.5t147 223t50 260q0 133 -49 259t-147 225.5 t-221 149.5t-256 50q-131 0 -255 -50t-220.5 -148.5t-147.5 -222.5t-51 -261zM395 721q0 94 37 197q55 154 183 241.5t294 87.5h58q25 -6 37 -8q141 -25 245 -117l-53 -73q-86 78 -197 98q-39 8 -84 8q-156 0 -269.5 -97t-139.5 -255q-6 -41 -6 -78q0 -180 119.5 -298 t291.5 -118q119 0 228 66l55 41l53 -74q-74 -61 -154.5 -93t-174.5 -32q-221 0 -372 146.5t-151 357.5z" />
<glyph unicode="&#xaa;" horiz-adv-x="983" d="M109 1143q0 35 6 71q25 129 113.5 206t205.5 77q29 0 60 -6q123 -27 182 -135l10 -19l6 -12v150h109v-662h-111v160l-6 -17q-31 -74 -98.5 -116.5t-155.5 -42.5q-59 0 -121 24q-160 68 -194 252q-6 35 -6 70zM131 610v101h670v-101h-670zM221 1147l4 -49 q23 -106 103 -162q59 -41 131 -41t131 43q78 57 98 156q6 29 6 57q0 51 -22 102l-21 39q-33 53 -84 81t-110 28q-96 0 -164 -72q-51 -53 -68 -137z" />
<glyph unicode="&#xab;" horiz-adv-x="806" d="M49 510q0 41 31 82q41 55 100 119l127 135h162l-121 -158q-78 -98 -78 -162l6 -51q18 -53 47 -95t146 -183h-199l-106 120q-115 123 -115 193zM334 510q0 20 8 40.5t23 41.5q25 35 45 59q10 12 55 60l131 135h160l-123 -158q-45 -59 -60.5 -92t-15.5 -70q0 -23 4 -35 t4 -16q16 -53 47 -98t146 -180h-201l-108 120q-115 131 -115 193z" />
<glyph unicode="&#xac;" horiz-adv-x="1245" d="M109 737v111h933v-406h-98v295h-835z" />
<glyph unicode="&#xad;" horiz-adv-x="878" d="M49 465l209 213h571l-204 -213h-576z" />
<glyph unicode="&#xae;" horiz-adv-x="1908" d="M119 739q0 317 223 540.5t541 223.5q317 0 540.5 -223t223.5 -541q0 -317 -223.5 -540.5t-540.5 -223.5t-540.5 223.5t-223.5 540.5zM209 739q0 -137 51 -262t147.5 -223t219.5 -148.5t256 -50.5q131 0 255 50.5t221 148.5t147 223t50 260q0 133 -49 259t-147 225.5 t-221 149.5t-256 50q-131 0 -255 -50t-220.5 -148.5t-147.5 -222.5t-51 -261zM655 254v989h209q145 0 216 -57.5t85 -149.5q6 -35 6 -63q0 -102 -63.5 -172t-169.5 -82l-37 -2l318 -463h-123l-336 500v-500h-105zM760 782h84q223 0 223 185q0 92 -52 140t-155 48h-100v-373z " />
<glyph unicode="&#xaf;" horiz-adv-x="694" d="M33 1169v177h631v-177h-631z" />
<glyph unicode="&#xb1;" horiz-adv-x="1216" d="M90 39v139h946v-139h-946zM90 539v139h404v250h139v-250h403v-139h-403v-250h-139v250h-404z" />
<glyph unicode="&#xb4;" horiz-adv-x="460" d="M106 1145l146 317h197l-207 -317h-136z" />
<glyph unicode="&#xb5;" horiz-adv-x="1275" d="M150 -285l4 119l4 182l-2 207l-4 195v502h188v-607q0 -145 28.5 -194t102.5 -49q117 0 194.5 165.5t77.5 417.5v267h189v-672q0 -92 19.5 -135t58.5 -43q41 0 64.5 42t23.5 126v28h43l2 -18v-27q0 -113 -48 -176t-137 -63q-100 0 -154 88t-54 264q-47 -182 -126 -267 t-198 -85q-86 0 -150 53q-57 55 -81 158l-2 -58q0 -133 65.5 -290.5t65.5 -186.5q0 -41 -22.5 -63.5t-63.5 -22.5q-47 0 -67.5 35t-20.5 108z" />
<glyph unicode="&#xb6;" horiz-adv-x="1302" d="M109 1092q0 158 110 270.5t268 112.5h609v-89h-609q-121 0 -204.5 -86t-83.5 -213q0 -119 85 -203.5t203 -84.5h148v506h90v-1305h-90v711h-148q-158 0 -268 110.5t-110 270.5zM868 0v1305h90v-1305h-90z" />
<glyph unicode="&#xb7;" horiz-adv-x="428" d="M61 508q0 61 43 104t107 43q63 0 108.5 -43t45.5 -104q0 -63 -43 -108.5t-107 -45.5q-66 0 -110 44t-44 110z" />
<glyph unicode="&#xb8;" horiz-adv-x="366" d="M90 -184l72 104l92 10q61 0 97 -29.5t36 -80.5q0 -80 -111 -146q-66 -37 -139 -36h-43l80 34q78 39 78 103q0 53 -86 53q-29 0 -76 -12z" />
<glyph unicode="&#xba;" horiz-adv-x="985" d="M109 1151l6 68q25 131 120 209.5t218 78.5q72 0 143 -30q166 -72 201 -258q6 -35 6 -70q0 -33 -6 -68q-20 -111 -92 -184.5t-179 -95.5q-31 -8 -69 -8h-35q-25 6 -37 8q-106 23 -178 96.5t-92 183.5zM121 610v101h670v-101h-670zM219 1151q0 -80 34 -138.5t87 -88 t117 -29.5q102 0 170 76q49 55 61 131q4 33 4 49q0 78 -33.5 136.5t-87 88t-116.5 29.5q-100 0 -168 -74t-68 -180z" />
<glyph unicode="&#xbb;" horiz-adv-x="806" d="M49 846h199l106 -119q115 -123 115 -192q0 -43 -29 -86q-37 -51 -102 -117l-127 -135h-160l121 157q45 57 60.5 90t15.5 72l-6 51q-18 55 -46 95.5t-147 183.5zM334 846h203l106 -119q115 -127 115 -192q0 -18 -8.5 -40t-21.5 -43.5t-44 -57.5t-57 -62l-131 -135h-160 l123 157q47 59 62.5 91t15.5 71q-6 37 -9 51q-16 51 -47.5 97.5t-146.5 181.5z" />
<glyph unicode="&#xbf;" horiz-adv-x="798" d="M45 354q0 174 152 312l114 102q43 43 75 83t55.5 86t23.5 110l-2 65h164l2 -63q0 -61 -4 -77t-23 -65q-31 -74 -84 -133l-86 -86q-150 -143 -149 -278q0 -113 76.5 -192t187.5 -79h57q27 6 39 8q49 12 90 24.5t115 41.5l-121 -205q-84 -23 -133 -31t-98 -8 q-197 0 -324 108.5t-127 276.5zM383 1358q0 61 41 104t102 43t106.5 -43t45.5 -106q0 -61 -44 -105.5t-106 -44.5q-61 0 -103 44.5t-42 107.5z" />
<glyph unicode="&#xc0;" horiz-adv-x="1505" d="M-70 0q86 47 117 78l51 69l482 1168q12 29 12 59q0 31 -49 103h327l535 -1330l16 -28l35 -41q18 -18 44 -35.5t75 -42.5h-475q76 49 76 104q0 27 -7 43l-163 428h-547l-164 -428q-6 -16 -6 -41q0 -57 69 -106h-428zM518 725h430l-213 563zM526 1921h193l143 -313h-127z " />
<glyph unicode="&#xc1;" horiz-adv-x="1505" d="M-70 0q86 47 117 78l51 69l482 1168q12 29 12 59q0 31 -49 103h327l535 -1330l16 -28l35 -41q18 -18 44 -35.5t75 -42.5h-475q76 49 76 104q0 27 -7 43l-163 428h-547l-164 -428q-6 -16 -6 -41q0 -57 69 -106h-428zM518 725h430l-213 563zM628 1608l146 317h197 l-207 -317h-136z" />
<glyph unicode="&#xc2;" horiz-adv-x="1505" d="M-70 0q86 47 117 78l51 69l482 1168q12 29 12 59q0 31 -49 103h327l535 -1330l16 -28l35 -41q18 -18 44 -35.5t75 -42.5h-475q76 49 76 104q0 27 -7 43l-163 428h-547l-164 -428q-6 -16 -6 -41q0 -57 69 -106h-428zM457 1600l148 317h297l147 -315h-131l-162 247 l-166 -249h-133zM518 725h430l-213 563z" />
<glyph unicode="&#xc3;" horiz-adv-x="1505" d="M-70 0q86 47 117 78l51 69l482 1168q12 29 12 59q0 31 -49 103h327l535 -1330l16 -28l35 -41q18 -18 44 -35.5t75 -42.5h-475q76 49 76 104q0 27 -7 43l-163 428h-547l-164 -428q-6 -16 -6 -41q0 -57 69 -106h-428zM459 1604l47 174q68 35 135 35q59 0 121 -17l43 -14 l35 -8l37 -2q20 0 61 12q53 18 109 65l-45 -178q-84 -45 -154 -45q-35 0 -98 15l-51 14l-68 8q-88 0 -172 -59zM518 725h430l-213 563z" />
<glyph unicode="&#xc4;" horiz-adv-x="1505" d="M-70 0q86 47 117 78l51 69l482 1168q12 29 12 59q0 31 -49 103h327l535 -1330l16 -28l35 -41q18 -18 44 -35.5t75 -42.5h-475q76 49 76 104q0 27 -7 43l-163 428h-547l-164 -428q-6 -16 -6 -41q0 -57 69 -106h-428zM352 1655q0 55 42 95t100 40q57 0 96 -39t39 -96 t-39 -96t-96 -39q-59 0 -100.5 39t-41.5 96zM518 725h430l-213 563zM811 1655q0 55 40 95t95 40q57 0 99 -40t42 -93q0 -57 -41.5 -97t-99.5 -40q-57 0 -96 39t-39 96z" />
<glyph unicode="&#xc5;" horiz-adv-x="1505" d="M-70 0q86 47 117 78l51 69l482 1168q12 29 12 59q0 31 -49 103h88q-63 76 -64 118q0 63 43 108.5t107 45.5q66 0 111.5 -44t45.5 -106q0 -45 -65 -122h61l535 -1330l16 -28l35 -41q18 -18 44 -35.5t75 -42.5h-475q76 49 76 104q0 27 -7 43l-163 428h-547l-164 -428 q-6 -16 -6 -41q0 -57 69 -106h-428zM518 725h430l-213 563zM633 1595q0 -33 24.5 -59.5t59.5 -26.5q37 0 61.5 25t24.5 61q0 37 -24.5 61.5t-61.5 24.5q-35 0 -59.5 -24.5t-24.5 -61.5z" />
<glyph unicode="&#xc6;" horiz-adv-x="2054" d="M-70 0q88 59 129 100t123 154l828 1137q8 10 11 16t5 14q0 23 -47 56h844v-281q-68 117 -150 117l-82 -2h-243v-432h348v-234q-16 23 -30.5 35t-37.5 25q-47 25 -127 24h-155v-547q80 -14 144 -20t114 -6q127 0 208.5 26.5t208.5 108.5l-98 -291h-903q68 51 86 90t18 137 v355h-499l-289 -418q-41 -59 -41 -82q0 -29 31 -82h-396zM727 731h397v580z" />
<glyph unicode="&#xc7;" horiz-adv-x="1447" d="M59 713q0 178 74 333.5t213 268.5q238 190 641 190q68 0 118 -6t150 -29v-253l-47 30q-129 82 -325 82q-270 0 -440.5 -164t-170.5 -428q0 -246 154 -405q86 -90 219 -146.5t264 -56.5q279 0 559 199l-168 -328q-145 -23 -213.5 -29t-164.5 -6q-117 0 -204 12.5 t-177 45.5q-215 72 -348.5 262t-133.5 428zM717 -209l71 105l93 12q59 0 96 -31t37 -80q0 -82 -111 -147q-66 -37 -139 -37h-43l80 35q35 16 56.5 46t21.5 56q0 53 -86 53q-29 0 -76 -12z" />
<glyph unicode="&#xc8;" horiz-adv-x="1064" d="M55 0q33 23 48.5 40t27.5 38q20 33 21 69l2 1172q0 45 -13.5 71.5t-66.5 86.5h780v-285q-39 63 -75 89t-85 26h-82h-241v-433h350v-231q-35 47 -81 65.5t-132 18.5h-141v-553q94 -14 137 -18t112 -4l95 2q109 0 170 25.5t168 105.5l-97 -285h-897zM307 1921h193l143 -313 h-127z" />
<glyph unicode="&#xc9;" horiz-adv-x="1064" d="M55 0q33 23 48.5 40t27.5 38q20 33 21 69l2 1172q0 45 -13.5 71.5t-66.5 86.5h780v-285q-39 63 -75 89t-85 26h-82h-241v-433h350v-231q-35 47 -81 65.5t-132 18.5h-141v-553q94 -14 137 -18t112 -4l95 2q109 0 170 25.5t168 105.5l-97 -285h-897zM407 1608l146 317h197 l-207 -317h-136z" />
<glyph unicode="&#xca;" horiz-adv-x="1064" d="M55 0q33 23 48.5 40t27.5 38q20 33 21 69l2 1172q0 45 -13.5 71.5t-66.5 86.5h780v-285q-39 63 -75 89t-85 26h-82h-241v-433h350v-231q-35 47 -81 65.5t-132 18.5h-141v-553q94 -14 137 -18t112 -4l95 2q109 0 170 25.5t168 105.5l-97 -285h-897zM237 1600l148 317h297 l147 -315h-131l-162 247l-166 -249h-133z" />
<glyph unicode="&#xcb;" horiz-adv-x="1064" d="M55 0q33 23 48.5 40t27.5 38q20 33 21 69l2 1172q0 45 -13.5 71.5t-66.5 86.5h780v-285q-39 63 -75 89t-85 26h-82h-241v-433h350v-231q-35 47 -81 65.5t-132 18.5h-141v-553q94 -14 137 -18t112 -4l95 2q109 0 170 25.5t168 105.5l-97 -285h-897zM193 1735q0 53 39 92 t96 39q53 0 91 -38t38 -93q0 -53 -38 -91t-95 -38q-55 0 -93 38t-38 91zM606 1735q0 53 37 92t93 39q55 0 95 -38t40 -93t-37 -92t-94 -37q-55 0 -94.5 37t-39.5 92z" />
<glyph unicode="&#xcc;" horiz-adv-x="536" d="M43 1921h193l143 -313h-127zM53 0q57 41 80 78l14 41q2 4 3.5 13t3.5 15l4 1172v33q-6 25 -15 41q-16 31 -69 84h383q-29 -29 -43.5 -46.5t-26.5 -46t-12 -65.5v-1172q0 -12 6 -32.5t19.5 -44t84.5 -70.5h-432z" />
<glyph unicode="&#xcd;" horiz-adv-x="536" d="M53 0q57 41 80 78l14 41q2 4 3.5 13t3.5 15l4 1172v33q-6 25 -15 41q-16 31 -69 84h383q-29 -29 -43.5 -46.5t-26.5 -46t-12 -65.5v-1172q0 -12 6 -32.5t19.5 -44t84.5 -70.5h-432zM143 1608l146 317h197l-207 -317h-136z" />
<glyph unicode="&#xce;" horiz-adv-x="536" d="M-27 1600l148 317h297l147 -315h-131l-162 247l-166 -249h-133zM53 0q57 41 80 78l14 41q2 4 3.5 13t3.5 15l4 1172v33q-6 25 -15 41q-16 31 -69 84h383q-29 -29 -43.5 -46.5t-26.5 -46t-12 -65.5v-1172q0 -12 6 -32.5t19.5 -44t84.5 -70.5h-432z" />
<glyph unicode="&#xcf;" horiz-adv-x="536" d="M-69 1735q0 53 39 92t96 39q53 0 91 -38t38 -93q0 -53 -38 -91t-95 -38q-55 0 -93 38t-38 91zM53 0q57 41 80 78l14 41q2 4 3.5 13t3.5 15l4 1172v33q-6 25 -15 41q-16 31 -69 84h383q-29 -29 -43.5 -46.5t-26.5 -46t-12 -65.5v-1172q0 -12 6 -32.5t19.5 -44t84.5 -70.5 h-432zM344 1735q0 53 37 92t93 39q55 0 95 -38t40 -93t-37 -92t-94 -37q-55 0 -94.5 37t-39.5 92z" />
<glyph unicode="&#xd1;" horiz-adv-x="1533" d="M59 0q33 23 48.5 39t31 43t15.5 65l2 1172v33q-6 25 -16.5 47t-63.5 78h254l874 -1104v946l-4 29l-10 43q-10 18 -22.5 35.5t-43.5 50.5h334q-51 -57 -63.5 -88t-12.5 -70v-1378q-63 29 -129 75q-35 29 -51 43q-35 29 -51 45l-78 86l-47 56l-692 870v-969 q0 -39 19.5 -72.5t82.5 -74.5h-377zM473 1604l47 174q68 35 135 35q59 0 121 -17l43 -14l35 -8l37 -2q20 0 61 12q53 18 109 65l-45 -178q-84 -45 -154 -45q-35 0 -98 15l-51 14l-68 8q-88 0 -172 -59z" />
<glyph unicode="&#xd2;" horiz-adv-x="1677" d="M59 748q0 338 220.5 549.5t568.5 211.5q344 0 557 -213t213 -559q0 -352 -211 -563t-563 -211q-350 0 -567.5 217.5t-217.5 567.5zM289 731q0 -266 171 -443t417 -177q225 0 371.5 166.5t146.5 427.5q0 272 -162 457.5t-402 185.5q-244 0 -393 -162t-149 -428v-27z M612 1921h193l143 -313h-127z" />
<glyph unicode="&#xd3;" horiz-adv-x="1677" d="M59 748q0 338 220.5 549.5t568.5 211.5q344 0 557 -213t213 -559q0 -352 -211 -563t-563 -211q-350 0 -567.5 217.5t-217.5 567.5zM289 731q0 -266 171 -443t417 -177q225 0 371.5 166.5t146.5 427.5q0 272 -162 457.5t-402 185.5q-244 0 -393 -162t-149 -428v-27z M714 1608l146 317h197l-207 -317h-136z" />
<glyph unicode="&#xd4;" horiz-adv-x="1677" d="M59 748q0 338 220.5 549.5t568.5 211.5q344 0 557 -213t213 -559q0 -352 -211 -563t-563 -211q-350 0 -567.5 217.5t-217.5 567.5zM289 731q0 -266 171 -443t417 -177q225 0 371.5 166.5t146.5 427.5q0 272 -162 457.5t-402 185.5q-244 0 -393 -162t-149 -428v-27z M543 1600l148 317h297l147 -315h-131l-162 247l-166 -249h-133z" />
<glyph unicode="&#xd5;" horiz-adv-x="1677" d="M59 748q0 338 220.5 549.5t568.5 211.5q344 0 557 -213t213 -559q0 -352 -211 -563t-563 -211q-350 0 -567.5 217.5t-217.5 567.5zM289 731q0 -266 171 -443t417 -177q225 0 371.5 166.5t146.5 427.5q0 272 -162 457.5t-402 185.5q-244 0 -393 -162t-149 -428v-27z M545 1604l47 174q68 35 135 35q59 0 121 -17l43 -14l35 -8l37 -2q20 0 61 12q53 18 109 65l-45 -178q-84 -45 -154 -45q-35 0 -98 15l-51 14l-68 8q-88 0 -172 -59z" />
<glyph unicode="&#xd6;" horiz-adv-x="1677" d="M59 748q0 338 220.5 549.5t568.5 211.5q344 0 557 -213t213 -559q0 -352 -211 -563t-563 -211q-350 0 -567.5 217.5t-217.5 567.5zM289 731q0 -266 171 -443t417 -177q225 0 371.5 166.5t146.5 427.5q0 272 -162 457.5t-402 185.5q-244 0 -393 -162t-149 -428v-27z M428 1655q0 55 42 95t99 40t96.5 -39t39.5 -96t-39 -96t-97 -39q-59 0 -100 39t-41 96zM1034 1655q0 55 40 95t95 40q57 0 98.5 -39t41.5 -94q0 -57 -40 -97t-100 -40q-57 0 -96 39t-39 96z" />
<glyph unicode="&#xd8;" horiz-adv-x="1613" d="M59 39l177 176q-106 158 -141.5 261.5t-35.5 262.5q0 344 209 557t545 213q100 0 197 -18q125 -31 184 -64.5t141 -126.5l164 158l55 -57l-161 -162q100 -141 130.5 -237.5t30.5 -272.5q0 -344 -202.5 -555t-534.5 -211q-158 0 -297 49q-70 27 -114 54.5t-117 95.5 l-176 -172zM279 758q0 -98 21 -176t87 -211l805 780q-96 106 -185 151.5t-206 45.5q-233 0 -377.5 -161t-144.5 -429zM436 305q68 -66 109 -94.5t99 -53t109.5 -36.5t98.5 -12q205 0 345 175t140 433q0 102 -20.5 177t-83.5 198z" />
<glyph unicode="&#xd9;" horiz-adv-x="1517" d="M63 1477h404q-90 -76 -90 -154v-829q0 -113 39 -189q41 -72 136 -117t214 -45q182 0 282.5 96.5t100.5 272.5v815q0 78 -78 150h385q-57 -49 -73.5 -83t-16.5 -67v-1175q0 -47 20.5 -77t83.5 -75h-323v121q-162 -156 -455 -156q-139 0 -258 46t-188 128 q-59 72 -75.5 137.5t-16.5 227.5v823q0 33 -19 70q-8 18 -24.5 36.5t-47.5 43.5zM532 1921h193l143 -313h-127z" />
<glyph unicode="&#xda;" horiz-adv-x="1517" d="M63 1477h404q-90 -76 -90 -154v-829q0 -113 39 -189q41 -72 136 -117t214 -45q182 0 282.5 96.5t100.5 272.5v815q0 78 -78 150h385q-57 -49 -73.5 -83t-16.5 -67v-1175q0 -47 20.5 -77t83.5 -75h-323v121q-162 -156 -455 -156q-139 0 -258 46t-188 128 q-59 72 -75.5 137.5t-16.5 227.5v823q0 33 -19 70q-8 18 -24.5 36.5t-47.5 43.5zM634 1608l146 317h197l-207 -317h-136z" />
<glyph unicode="&#xdb;" horiz-adv-x="1517" d="M63 1477h404q-90 -76 -90 -154v-829q0 -113 39 -189q41 -72 136 -117t214 -45q182 0 282.5 96.5t100.5 272.5v815q0 78 -78 150h385q-57 -49 -73.5 -83t-16.5 -67v-1175q0 -47 20.5 -77t83.5 -75h-323v121q-162 -156 -455 -156q-139 0 -258 46t-188 128 q-59 72 -75.5 137.5t-16.5 227.5v823q0 33 -19 70q-8 18 -24.5 36.5t-47.5 43.5zM463 1600l148 317h297l147 -315h-131l-162 247l-166 -249h-133z" />
<glyph unicode="&#xdc;" horiz-adv-x="1517" d="M63 1477h404q-90 -76 -90 -154v-829q0 -113 39 -189q41 -72 136 -117t214 -45q182 0 282.5 96.5t100.5 272.5v815q0 78 -78 150h385q-57 -49 -73.5 -83t-16.5 -67v-1175q0 -47 20.5 -77t83.5 -75h-323v121q-162 -156 -455 -156q-139 0 -258 46t-188 128 q-59 72 -75.5 137.5t-16.5 227.5v823q0 33 -19 70q-8 18 -24.5 36.5t-47.5 43.5zM391 1655q0 55 42 95t102 40q55 0 94 -39t39 -96q0 -55 -38 -95t-95 -40q-59 0 -101.5 40t-42.5 95zM850 1655q0 55 40 95t95 40q59 0 100 -39t41 -94q0 -57 -42 -97t-99 -40t-96 39t-39 96z " />
<glyph unicode="&#xdf;" horiz-adv-x="1304" d="M86 0q25 23 38 44.5t21.5 53t8.5 92.5l2 897q0 96 16 150.5t68 112.5q131 160 362 159q207 0 331 -98t124 -264q0 -90 -26.5 -139.5t-112.5 -112.5q96 -20 144 -46t95 -83q100 -113 100 -283q0 -217 -164.5 -359t-414.5 -142l-113 6l-135 241q100 -53 163.5 -73.5 t131.5 -20.5q135 0 220 85t85 220q0 119 -74 211q-39 51 -94 83t-103 44.5t-143 12.5l-77 141q63 0 94 4t76 16q145 39 145 195q0 94 -66.5 150.5t-177.5 56.5q-104 0 -174 -51q-39 -29 -51 -77t-12 -171v-865q0 -63 12 -105t72 -85h-371z" />
<glyph unicode="&#xe0;" horiz-adv-x="1069" d="M45 311q0 231 358 295l115 21q98 18 142.5 50t44.5 85q0 63 -48.5 99t-130.5 36q-49 0 -106 -14q-67 -13 -219 -68l166 232q80 23 153 22q111 0 195 -25q66 -14 125 -65q49 -41 63.5 -80t14.5 -133v-475q0 -66 13 -94.5t54 -44.5q37 -18 123 -19h20l-122 -151l-50 -7 q-96 0 -173.5 63.5t-77.5 145.5l2 80v277l-60 -23l-106 -22q-63 -10 -116.5 -28.5t-86.5 -37.5q-70 -43 -70 -135q0 -80 60.5 -127t165.5 -47q51 0 79.5 5t116.5 32l-117 -158q-111 -33 -174 -33q-139 0 -246.5 105.5t-107.5 238.5zM309 1458h193l143 -313h-127z" />
<glyph unicode="&#xe1;" horiz-adv-x="1069" d="M45 311q0 231 358 295l115 21q98 18 142.5 50t44.5 85q0 63 -48.5 99t-130.5 36q-49 0 -106 -14q-67 -13 -219 -68l166 232q80 23 153 22q111 0 195 -25q66 -14 125 -65q49 -41 63.5 -80t14.5 -133v-475q0 -66 13 -94.5t54 -44.5q37 -18 123 -19h20l-122 -151l-50 -7 q-96 0 -173.5 63.5t-77.5 145.5l2 80v277l-60 -23l-106 -22q-63 -10 -116.5 -28.5t-86.5 -37.5q-70 -43 -70 -135q0 -80 60.5 -127t165.5 -47q51 0 79.5 5t116.5 32l-117 -158q-111 -33 -174 -33q-139 0 -246.5 105.5t-107.5 238.5zM409 1145l146 317h197l-207 -317h-136z " />
<glyph unicode="&#xe2;" horiz-adv-x="1069" d="M45 311q0 231 358 295l115 21q98 18 142.5 50t44.5 85q0 63 -48.5 99t-130.5 36q-49 0 -106 -14q-67 -13 -219 -68l166 232q80 23 153 22q111 0 195 -25q66 -14 125 -65q49 -41 63.5 -80t14.5 -133v-475q0 -66 13 -94.5t54 -44.5q37 -18 123 -19h20l-122 -151l-50 -7 q-96 0 -173.5 63.5t-77.5 145.5l2 80v277l-60 -23l-106 -22q-63 -10 -116.5 -28.5t-86.5 -37.5q-70 -43 -70 -135q0 -80 60.5 -127t165.5 -47q51 0 79.5 5t116.5 32l-117 -158q-111 -33 -174 -33q-139 0 -246.5 105.5t-107.5 238.5zM240 1137l148 317h297l147 -315h-131 l-162 247l-166 -249h-133z" />
<glyph unicode="&#xe3;" horiz-adv-x="1069" d="M45 311q0 231 358 295l115 21q98 18 142.5 50t44.5 85q0 63 -48.5 99t-130.5 36q-49 0 -106 -14q-67 -13 -219 -68l166 232q80 23 153 22q111 0 195 -25q66 -14 125 -65q49 -41 63.5 -80t14.5 -133v-475q0 -66 13 -94.5t54 -44.5q37 -18 123 -19h20l-122 -151l-50 -7 q-96 0 -173.5 63.5t-77.5 145.5l2 80v277l-60 -23l-106 -22q-63 -10 -116.5 -28.5t-86.5 -37.5q-70 -43 -70 -135q0 -80 60.5 -127t165.5 -47q51 0 79.5 5t116.5 32l-117 -158q-111 -33 -174 -33q-139 0 -246.5 105.5t-107.5 238.5zM240 1141l47 174q68 35 135 35 q59 0 121 -17l43 -14l35 -8l37 -2q20 0 61 12q53 18 109 65l-45 -178q-84 -45 -154 -45q-35 0 -98 15l-51 14l-68 8q-88 0 -172 -59z" />
<glyph unicode="&#xe4;" horiz-adv-x="1067" d="M45 311q0 231 358 295l115 21q98 18 142.5 50t44.5 85q0 63 -48.5 99t-130.5 36q-49 0 -106 -14q-67 -13 -219 -68l166 232q80 23 153 22q111 0 195 -25q66 -14 125 -65q49 -41 63.5 -80t14.5 -133v-475q0 -66 13 -94.5t54 -44.5q37 -18 123 -19h20l-122 -151l-50 -7 q-96 0 -173.5 63.5t-77.5 145.5l2 80v277l-60 -23l-106 -22q-63 -10 -116.5 -28.5t-86.5 -37.5q-70 -43 -70 -135q0 -80 60.5 -127t165.5 -47q51 0 79.5 5t116.5 32l-117 -158q-111 -33 -174 -33q-139 0 -246.5 105.5t-107.5 238.5zM215 1262q0 55 39 94t96 39q51 0 90 -39 t39 -94q0 -53 -39 -90t-94 -37q-53 0 -92 37t-39 90zM629 1262q0 55 36.5 94t92.5 39q53 0 94 -39t41 -94q0 -53 -37 -90t-94 -37q-55 0 -94 37t-39 90z" />
<glyph unicode="&#xe5;" horiz-adv-x="1067" d="M45 311q0 231 358 295l115 21q98 18 142.5 50t44.5 85q0 63 -48.5 99t-130.5 36q-49 0 -106 -14q-67 -13 -219 -68l166 232q80 23 153 22q111 0 195 -25q66 -14 125 -65q49 -41 63.5 -80t14.5 -133v-475q0 -66 13 -94.5t54 -44.5q37 -18 123 -19h20l-122 -151l-50 -7 q-96 0 -173.5 63.5t-77.5 145.5l2 80v277l-60 -23l-106 -22q-63 -10 -116.5 -28.5t-86.5 -37.5q-70 -43 -70 -135q0 -80 60.5 -127t165.5 -47q51 0 79.5 5t116.5 32l-117 -158q-111 -33 -174 -33q-139 0 -246.5 105.5t-107.5 238.5zM428 1311q0 66 46 114t116 48t119 -47.5 t49 -114.5q0 -68 -49.5 -117t-116.5 -49q-70 0 -117 47t-47 119zM500 1311q0 -37 26.5 -63.5t63.5 -26.5q39 0 64.5 25.5t25.5 64.5q0 35 -26.5 61.5t-63.5 26.5t-63.5 -24.5t-26.5 -63.5z" />
<glyph unicode="&#xe6;" horiz-adv-x="1753" d="M43 315q0 129 90 201t295 105l125 18q84 14 113 39q49 37 49 92q0 61 -51.5 96t-145.5 35q-84 0 -146.5 -16.5t-168.5 -63.5l153 219q72 20 109 26.5t86 6.5q35 0 53.5 -2t57.5 -8q78 -16 118.5 -41t98.5 -88q106 80 174.5 106.5t169.5 26.5q98 0 186 -30.5t150 -84.5 q74 -70 108.5 -163t34.5 -254h-768q10 -82 19.5 -123t27.5 -82q45 -92 152.5 -151.5t232.5 -59.5q145 0 334 125l-137 -240q-66 -25 -114 -33t-120 -8q-176 0 -317 68q-90 43 -168 125t-108.5 161.5t-30.5 227.5l-109 -33l-102 -27q-121 -31 -172.5 -74.5t-51.5 -115.5 q0 -74 50.5 -120t132.5 -46l98 6q96 12 190 94l-51 -182q-49 -41 -112.5 -61.5t-143.5 -20.5q-162 0 -276.5 102.5t-114.5 247.5zM956 702h512q-25 106 -88 166t-157 60q-129 -1 -207 -99q-18 -23 -31.5 -52t-28.5 -75z" />
<glyph unicode="&#xe7;" horiz-adv-x="1034" d="M61 500q0 246 176.5 405.5t446.5 159.5q57 0 91 -4.5t106 -22.5v-237l-31 28q-88 68 -223 68q-150 0 -244 -106.5t-94 -276.5q0 -176 116.5 -286.5t305.5 -110.5q104 0 206.5 38t151.5 95l-158 -250q-66 -20 -119 -29.5t-112 -9.5q-266 0 -442.5 153.5t-176.5 385.5z M469 -184l72 104l92 10q61 0 97 -29.5t36 -80.5q0 -80 -111 -146q-66 -37 -139 -36h-43l80 34q78 39 78 103q0 53 -86 53q-29 0 -76 -12z" />
<glyph unicode="&#xe8;" horiz-adv-x="1116" d="M59 524q0 231 151.5 385t383.5 154q223 0 344 -137.5t121 -397.5h-770q0 -80 10 -117.5t39 -93.5q47 -92 145.5 -145t225.5 -53q49 0 99 10t91 25.5t61.5 27t104.5 64.5l-147 -248q-49 -18 -100.5 -26.5t-115.5 -8.5q-293 0 -468 152.5t-175 408.5zM317 682h502 q0 104 -67.5 172t-167.5 68q-131 -1 -211 -97q-29 -31 -39 -58.5t-17 -84.5zM332 1458h193l143 -313h-127z" />
<glyph unicode="&#xe9;" horiz-adv-x="1116" d="M59 524q0 231 151.5 385t383.5 154q223 0 344 -137.5t121 -397.5h-770q0 -80 10 -117.5t39 -93.5q47 -92 145.5 -145t225.5 -53q49 0 99 10t91 25.5t61.5 27t104.5 64.5l-147 -248q-49 -18 -100.5 -26.5t-115.5 -8.5q-293 0 -468 152.5t-175 408.5zM317 682h502 q0 104 -67.5 172t-167.5 68q-131 -1 -211 -97q-29 -31 -39 -58.5t-17 -84.5zM434 1145l146 317h197l-207 -317h-136z" />
<glyph unicode="&#xea;" horiz-adv-x="1116" d="M59 524q0 231 151.5 385t383.5 154q223 0 344 -137.5t121 -397.5h-770q0 -80 10 -117.5t39 -93.5q47 -92 145.5 -145t225.5 -53q49 0 99 10t91 25.5t61.5 27t104.5 64.5l-147 -248q-49 -18 -100.5 -26.5t-115.5 -8.5q-293 0 -468 152.5t-175 408.5zM262 1137l148 317h297 l147 -315h-131l-162 247l-166 -249h-133zM317 682h502q0 104 -67.5 172t-167.5 68q-131 -1 -211 -97q-29 -31 -39 -58.5t-17 -84.5z" />
<glyph unicode="&#xeb;" horiz-adv-x="1116" d="M59 524q0 231 151.5 385t383.5 154q223 0 344 -137.5t121 -397.5h-770q0 -80 10 -117.5t39 -93.5q47 -92 145.5 -145t225.5 -53q49 0 99 10t91 25.5t61.5 27t104.5 64.5l-147 -248q-49 -18 -100.5 -26.5t-115.5 -8.5q-293 0 -468 152.5t-175 408.5zM219 1272q0 53 39 92 t96 39q53 0 91 -38t38 -93q0 -53 -38 -91t-95 -38q-55 0 -93 38t-38 91zM317 682h502q0 104 -67.5 172t-167.5 68q-131 -1 -211 -97q-29 -31 -39 -58.5t-17 -84.5zM632 1272q0 53 37 92t93 39q55 0 95 -38t40 -93t-37 -92t-94 -37q-55 0 -94.5 37t-39.5 92z" />
<glyph unicode="&#xec;" horiz-adv-x="518" d="M33 1458h193l143 -313h-127zM80 0q55 43 67 90q6 14 8.5 27.5t2.5 25.5l2 41l-2 637q0 106 -10.5 141t-61.5 91l102 -6q37 0 72 8t107 30v-895v-47l10 -51q10 -33 21.5 -48t45.5 -44h-364z" />
<glyph unicode="&#xed;" horiz-adv-x="518" d="M80 0q55 43 67 90q6 14 8.5 27.5t2.5 25.5l2 41l-2 637q0 106 -10.5 141t-61.5 91l102 -6q37 0 72 8t107 30v-895v-47l10 -51q10 -33 21.5 -48t45.5 -44h-364zM135 1145l146 317h197l-207 -317h-136z" />
<glyph unicode="&#xee;" horiz-adv-x="518" d="M-35 1137l148 317h297l147 -315h-131l-162 247l-166 -249h-133zM80 0q55 43 67 90q6 14 8.5 27.5t2.5 25.5l2 41l-2 637q0 106 -10.5 141t-61.5 91l102 -6q37 0 72 8t107 30v-895v-47l10 -51q10 -33 21.5 -48t45.5 -44h-364z" />
<glyph unicode="&#xef;" horiz-adv-x="518" d="M-80 1272q0 53 39 92t96 39q53 0 91 -38t38 -93q0 -53 -38 -91t-95 -38q-55 0 -93 38t-38 91zM80 0q55 43 67 90q6 14 8.5 27.5t2.5 25.5l2 41l-2 637q0 106 -10.5 141t-61.5 91l102 -6q37 0 72 8t107 30v-895v-47l10 -51q10 -33 21.5 -48t45.5 -44h-364zM333 1272 q0 53 37 92t93 39q55 0 95 -38t40 -93t-37 -92t-94 -37q-55 0 -94.5 37t-39.5 92z" />
<glyph unicode="&#xf1;" horiz-adv-x="1232" d="M86 0q49 41 59.5 84t10.5 104v639q0 96 -10.5 128t-59.5 81l33 -2q78 0 117.5 6.5t123.5 30.5v-133l70 61q104 76 256 76q186 0 288.5 -98t102.5 -283v-504v-47q0 -14 3 -25.5t9.5 -33t18.5 -38.5t45 -46h-360q31 25 43 43t20 46t10 42t2 59v445q0 82 -8 123t-33 73 q-55 78 -192 78q-139 0 -215 -65q-33 -33 -45.5 -75t-12.5 -132l3 -447l6 -47l8 -51q4 -27 16.5 -46t42.5 -46h-352zM321 1141l47 174q68 35 135 35q59 0 121 -17l43 -14l35 -8l37 -2q20 0 61 12q53 18 109 65l-45 -178q-84 -45 -154 -45q-35 0 -98 15l-51 14l-68 8 q-88 0 -172 -59z" />
<glyph unicode="&#xf2;" horiz-adv-x="1300" d="M61 535q0 250 168 405.5t437 155.5q256 0 413.5 -156t157.5 -416q0 -262 -203 -434q-147 -127 -399 -127q-258 0 -416 156t-158 416zM276 524q0 -180 113 -294.5t283 -114.5q150 0 248 116.5t98 296.5q0 172 -106.5 289t-268.5 117q-160 0 -263.5 -111.5t-103.5 -283.5 v-15zM424 1458h193l143 -313h-127z" />
<glyph unicode="&#xf3;" horiz-adv-x="1300" d="M61 535q0 250 168 405.5t437 155.5q256 0 413.5 -156t157.5 -416q0 -262 -203 -434q-147 -127 -399 -127q-258 0 -416 156t-158 416zM276 524q0 -180 113 -294.5t283 -114.5q150 0 248 116.5t98 296.5q0 172 -106.5 289t-268.5 117q-160 0 -263.5 -111.5t-103.5 -283.5 v-15zM526 1145l146 317h197l-207 -317h-136z" />
<glyph unicode="&#xf4;" horiz-adv-x="1300" d="M61 535q0 250 168 405.5t437 155.5q256 0 413.5 -156t157.5 -416q0 -262 -203 -434q-147 -127 -399 -127q-258 0 -416 156t-158 416zM276 524q0 -180 113 -294.5t283 -114.5q150 0 248 116.5t98 296.5q0 172 -106.5 289t-268.5 117q-160 0 -263.5 -111.5t-103.5 -283.5 v-15zM354 1137l148 317h297l147 -315h-131l-162 247l-166 -249h-133z" />
<glyph unicode="&#xf5;" horiz-adv-x="1300" d="M61 535q0 250 168 405.5t437 155.5q256 0 413.5 -156t157.5 -416q0 -262 -203 -434q-147 -127 -399 -127q-258 0 -416 156t-158 416zM276 524q0 -180 113 -294.5t283 -114.5q150 0 248 116.5t98 296.5q0 172 -106.5 289t-268.5 117q-160 0 -263.5 -111.5t-103.5 -283.5 v-15zM356 1141l47 174q68 35 135 35q59 0 121 -17l43 -14l35 -8l37 -2q20 0 61 12q53 18 109 65l-45 -178q-84 -45 -154 -45q-35 0 -98 15l-51 14l-68 8q-88 0 -172 -59z" />
<glyph unicode="&#xf6;" horiz-adv-x="1280" d="M53 535q0 250 168 405.5t436 155.5q256 0 414 -156t158 -416t-203 -434q-147 -127 -399 -127q-262 0 -418 156t-156 416zM268 524q0 -178 112 -293.5t282 -115.5q152 0 250 116.5t98 296.5q0 174 -107.5 290t-269.5 116q-160 0 -262.5 -110.5t-102.5 -284.5v-15z M293 1262q0 55 39 94t96 39q53 0 90 -39t37 -94q0 -53 -39 -90t-94 -37q-53 0 -91 36t-38 91zM707 1262q0 55 36.5 94t92.5 39q53 0 94 -39t41 -94q0 -53 -39 -90t-92 -37q-55 0 -94 37t-39 90z" />
<glyph unicode="&#xf7;" horiz-adv-x="1216" d="M88 414v139h948v-139h-948zM446 207q0 49 33 82q39 35 84 35q49 0 82 -33t33 -84q0 -49 -35 -82q-31 -35 -80 -35t-83 36t-34 81zM446 758q0 49 33 82q39 35 84 34q49 0 80 -34q35 -35 35 -82q0 -49 -35 -82q-31 -35 -80 -35t-83 34t-34 83z" />
<glyph unicode="&#xf8;" horiz-adv-x="1277" d="M49 57l117 109q-68 115 -90.5 186.5t-22.5 173.5q0 250 164 410t426 160q104 0 197 -29q55 -16 94 -35.5t98 -60.5l142 129l49 -51l-140 -127l33 -39q113 -139 113 -361q0 -258 -203 -432q-147 -127 -399 -127q-59 0 -92 3t-97.5 18.5t-108.5 42t-110 88.5l-119 -117z M268 539q0 -66 10.5 -109t45.5 -113l559 521q-43 33 -70 48t-55 25q-61 23 -127 23q-158 0 -260.5 -111.5t-102.5 -283.5zM373 240q43 -39 76.5 -59.5t76.5 -37.5q84 -25 142 -24q150 0 246 116.5t96 301.5q0 74 -14.5 115.5t-65.5 119.5z" />
<glyph unicode="&#xf9;" horiz-adv-x="1232" d="M80 1044h53q74 0 110 6.5t119 34.5v-708q0 -55 8.5 -91t26.5 -65q57 -86 219 -86q119 0 197 62q35 31 48 71.5t13 124.5v455q0 86 -10 115.5t-61 80.5l61 -2q61 0 98 6.5t115 32.5v-891v-49t10 -51q6 -33 15.5 -45t44.5 -45h-279v92q-35 -33 -49 -43t-63 -34.5 t-100.5 -37t-104.5 -12.5q-393 0 -393 424v449q0 90 -12.5 122.5t-65.5 83.5zM391 1458h193l143 -313h-127z" />
<glyph unicode="&#xfa;" horiz-adv-x="1232" d="M80 1044h53q74 0 110 6.5t119 34.5v-708q0 -55 8.5 -91t26.5 -65q57 -86 219 -86q119 0 197 62q35 31 48 71.5t13 124.5v455q0 86 -10 115.5t-61 80.5l61 -2q61 0 98 6.5t115 32.5v-891v-49t10 -51q6 -33 15.5 -45t44.5 -45h-279v92q-35 -33 -49 -43t-63 -34.5 t-100.5 -37t-104.5 -12.5q-393 0 -393 424v449q0 90 -12.5 122.5t-65.5 83.5zM491 1145l146 317h197l-207 -317h-136z" />
<glyph unicode="&#xfb;" horiz-adv-x="1232" d="M80 1044h53q74 0 110 6.5t119 34.5v-708q0 -55 8.5 -91t26.5 -65q57 -86 219 -86q119 0 197 62q35 31 48 71.5t13 124.5v455q0 86 -10 115.5t-61 80.5l61 -2q61 0 98 6.5t115 32.5v-891v-49t10 -51q6 -33 15.5 -45t44.5 -45h-279v92q-35 -33 -49 -43t-63 -34.5 t-100.5 -37t-104.5 -12.5q-393 0 -393 424v449q0 90 -12.5 122.5t-65.5 83.5zM321 1137l148 317h297l147 -315h-131l-162 247l-166 -249h-133z" />
<glyph unicode="&#xfc;" horiz-adv-x="1232" d="M80 1044h53q74 0 110 6.5t119 34.5v-708q0 -55 8.5 -91t26.5 -65q57 -86 219 -86q119 0 197 62q35 31 48 71.5t13 124.5v455q0 86 -10 115.5t-61 80.5l61 -2q61 0 98 6.5t115 32.5v-891v-49t10 -51q6 -33 15.5 -45t44.5 -45h-279v92q-35 -33 -49 -43t-63 -34.5 t-100.5 -37t-104.5 -12.5q-393 0 -393 424v449q0 90 -12.5 122.5t-65.5 83.5zM272 1262q0 55 39 94t97 39q53 0 91 -38t38 -95q0 -53 -39 -90t-95 -37q-53 0 -92 37t-39 90zM686 1262q0 55 37 94t92 39t95 -38t40 -95q0 -53 -36.5 -90t-94.5 -37q-55 0 -94 37t-39 90z" />
<glyph unicode="&#xff;" horiz-adv-x="1054" d="M-82 -510l182 201q63 -51 125 -51q61 0 104.5 47t84.5 157l51 140l-39 106l-47 107l-246 569q-70 158 -106 201q-12 20 -90 73l116 -6q63 0 172 37l348 -817l234 590q31 78 31 112q0 43 -52 91h338l-534 -1264q-76 -180 -184.5 -252t-307.5 -72q-45 0 -79.5 6.5 t-100.5 24.5zM189 1272q0 53 39 92t96 39q53 0 91 -38t38 -93q0 -53 -38 -91t-95 -38q-55 0 -93 38t-38 91zM602 1272q0 53 37 92t93 39q55 0 95 -38t40 -93t-37 -92t-94 -37q-55 0 -94.5 37t-39.5 92z" />
<glyph unicode="&#x152;" horiz-adv-x="1921" d="M59 735q0 348 225.5 559t598.5 211l92 -6l119 -20l178 -2h420v-287l-41 47q-33 45 -64 57.5t-110 12.5h-273v-433h352v-237l-16 18l-47 50q-49 27 -150 26h-143v-557q55 -10 116.5 -19.5t137.5 -9.5l102 7q102 10 165 36.5t165 102.5l-102 -291h-524l-177 -8l-135 -23 q-41 -6 -79 -10t-72 -4q-104 0 -207 33q-123 33 -238 127q-293 233 -293 620zM285 762q0 -264 174 -463t407 -199q80 0 105 27q10 12 12 35.5t2 122.5v893q0 125 -19.5 153.5t-109.5 28.5q-246 0 -408.5 -169t-162.5 -429z" />
<glyph unicode="&#x153;" horiz-adv-x="2058" d="M49 522q0 238 170 401.5t420 163.5q104 0 206.5 -30.5t156.5 -66.5t122 -122q113 119 195 158t217 39q225 0 358 -162q55 -70 80 -154.5t25 -220.5h-764q0 -184 122 -297.5t314 -113.5q184 0 338 127l-147 -246q-98 -35 -230 -35q-184 0 -317 64q-57 25 -97 56.5 t-104 102.5q-80 -88 -128 -123.5t-124 -64.5q-117 -43 -244 -43q-201 0 -339 102q-102 78 -166 206t-64 259zM272 543l2 -54q0 -168 107.5 -273t267.5 -105q154 0 254.5 114.5t100.5 294.5q0 172 -110 292t-267 120q-158 0 -256.5 -108.5t-98.5 -280.5zM1260 700h505 q-12 98 -81.5 162t-163.5 64q-102 0 -172 -61.5t-88 -164.5z" />
<glyph unicode="&#x178;" horiz-adv-x="1124" d="M-141 1477h352l412 -648l333 490q20 27 21 63q0 33 -68 95h365l-567 -820v-510q0 -45 20.5 -76.5t75.5 -70.5h-414q61 45 74 78l16 41l6 28l4 515l-444 657l-25 29q-47 49 -96 82zM223 1735q0 53 39 92t96 39q53 0 91 -38t38 -93q0 -53 -38 -91t-95 -38q-55 0 -93 38 t-38 91zM636 1735q0 53 37 92t93 39q55 0 95 -38t40 -93t-37 -92t-94 -37q-55 0 -94.5 37t-39.5 92z" />
<glyph unicode="&#x2c6;" horiz-adv-x="598" d="M4 1137l148 317h297l147 -315h-131l-162 247l-166 -249h-133z" />
<glyph unicode="&#x2dc;" horiz-adv-x="595" d="M4 1141l47 174q68 35 135 35q59 0 121 -17l43 -14l35 -8l37 -2q20 0 61 12q53 18 109 65l-45 -178q-84 -45 -154 -45q-35 0 -98 15l-51 14l-68 8q-88 0 -172 -59z" />
<glyph unicode="&#x2000;" horiz-adv-x="962" />
<glyph unicode="&#x2001;" horiz-adv-x="1925" />
<glyph unicode="&#x2002;" horiz-adv-x="962" />
<glyph unicode="&#x2003;" horiz-adv-x="1925" />
<glyph unicode="&#x2004;" horiz-adv-x="641" />
<glyph unicode="&#x2005;" horiz-adv-x="481" />
<glyph unicode="&#x2006;" horiz-adv-x="320" />
<glyph unicode="&#x2007;" horiz-adv-x="320" />
<glyph unicode="&#x2008;" horiz-adv-x="240" />
<glyph unicode="&#x2009;" horiz-adv-x="385" />
<glyph unicode="&#x200a;" horiz-adv-x="106" />
<glyph unicode="&#x2010;" horiz-adv-x="878" d="M49 465l209 213h571l-204 -213h-576z" />
<glyph unicode="&#x2011;" horiz-adv-x="878" d="M49 465l209 213h571l-204 -213h-576z" />
<glyph unicode="&#x2012;" horiz-adv-x="878" d="M49 465l209 213h571l-204 -213h-576z" />
<glyph unicode="&#x2013;" d="M147 643v178h1035v-178h-1035z" />
<glyph unicode="&#x2014;" horiz-adv-x="2039" d="M61 684v107h1917v-107h-1917z" />
<glyph unicode="&#x2018;" horiz-adv-x="419" d="M59 1143q0 43 11.5 84t35.5 86q16 27 33 55q20 23 29 31q37 43 123 106l37 -30q-37 -35 -52.5 -56.5t-31.5 -56.5q-14 -43 -15 -59l7 -43q125 -49 124 -138q0 -68 -45 -114.5t-114 -46.5q-63 0 -102.5 49t-39.5 133z" />
<glyph unicode="&#x2019;" horiz-adv-x="419" d="M61 1343q0 68 45.5 115t112.5 47q68 0 104.5 -47t36.5 -135q0 -45 -10 -87t-34.5 -85t-63.5 -86q-18 -20 -48 -45.5t-73 -58.5l-39 28q35 33 54.5 58.5t29.5 56.5q14 29 14 59l-4 43q-74 31 -99.5 58.5t-25.5 78.5z" />
<glyph unicode="&#x201a;" horiz-adv-x="419" d="M61 119q0 68 45.5 115t112.5 47q68 0 104.5 -47.5t36.5 -133.5q0 -45 -10 -87t-35 -85q-12 -23 -26.5 -42t-37 -43.5t-50 -49t-70.5 -57.5l-39 31q68 61 84 114q14 31 14 58t-4 43q-72 29 -98.5 58.5t-26.5 78.5z" />
<glyph unicode="&#x201c;" horiz-adv-x="776" d="M59 1143q0 43 11.5 84t35.5 86q16 27 33 55q20 23 29 31q37 43 123 106l37 -30q-37 -35 -52.5 -56.5t-31.5 -56.5q-14 -43 -15 -59l7 -43q125 -49 124 -138q0 -68 -45 -114.5t-114 -46.5q-63 0 -102.5 49t-39.5 133zM416 1143q0 88 47 170q16 27 33 55q20 23 28 31 q37 43 123 106l37 -30q-37 -35 -52.5 -56.5t-31.5 -56.5q-14 -43 -14 -59q0 -25 6 -43q125 -49 125 -138q0 -68 -45 -114.5t-115 -46.5q-66 0 -103.5 48t-37.5 134z" />
<glyph unicode="&#x201d;" horiz-adv-x="776" d="M61 1343q0 68 45.5 115t112.5 47q68 0 104.5 -47t36.5 -135q0 -45 -10 -87t-34.5 -85t-63.5 -86q-18 -20 -48 -45.5t-73 -58.5l-39 28q35 33 54.5 58.5t29.5 56.5q14 29 14 59l-4 43q-74 31 -99.5 58.5t-25.5 78.5zM416 1343q0 66 46 114t113 48q66 0 104 -48t38 -134 q0 -88 -45 -170q-8 -14 -21 -33q-18 -29 -39.5 -52.5t-51.5 -48.5t-73 -58l-38 28q68 63 86 115q12 29 12 59l-4 43q-72 31 -99.5 59.5t-27.5 77.5z" />
<glyph unicode="&#x201e;" horiz-adv-x="776" d="M61 119q0 68 45.5 115t112.5 47q68 0 104.5 -47.5t36.5 -133.5q0 -45 -10 -87t-35 -85q-12 -23 -26.5 -42t-37 -43.5t-50 -49t-70.5 -57.5l-39 31q68 61 84 114q14 31 14 58t-4 43q-72 29 -98.5 58.5t-26.5 78.5zM416 119q0 68 47 115t112 47q66 0 104 -48.5t38 -132.5 t-45 -172q-29 -49 -64 -86q-23 -25 -50.5 -49t-70.5 -57l-38 31q35 33 55 59.5t31.5 55t11.5 59.5l-4 41q-70 29 -98.5 59.5t-28.5 77.5z" />
<glyph unicode="&#x2022;" horiz-adv-x="428" d="M61 508q0 61 43 104t107 43q63 0 108.5 -43t45.5 -104q0 -63 -43 -108.5t-107 -45.5q-66 0 -110 44t-44 110z" />
<glyph unicode="&#x2026;" horiz-adv-x="2039" d="M258 82q0 41 28.5 68.5t69.5 27.5q43 0 71 -27.5t28 -68.5q0 -43 -29 -70q-27 -29 -70 -28q-41 0 -69.5 28.5t-28.5 69.5zM940 82q0 41 28.5 68.5t69.5 27.5q43 0 71 -27.5t28 -68.5q0 -43 -29 -70q-27 -29 -70 -28q-41 0 -69.5 28.5t-28.5 69.5zM1608 82q0 41 28.5 69.5 t69.5 28.5t69.5 -28.5t28.5 -69.5t-28.5 -69.5t-69.5 -28.5t-69.5 28.5t-28.5 69.5z" />
<glyph unicode="&#x202f;" horiz-adv-x="385" />
<glyph unicode="&#x2039;" horiz-adv-x="518" d="M49 510q0 41 31 82q41 55 100 119l127 135h162l-121 -158q-78 -98 -78 -162l6 -51q18 -53 47 -95t146 -183h-199l-106 120q-115 123 -115 193z" />
<glyph unicode="&#x203a;" horiz-adv-x="518" d="M49 846h199l106 -119q115 -123 115 -192q0 -43 -29 -86q-37 -51 -102 -117l-127 -135h-160l121 157q45 57 60.5 90t15.5 72l-6 51q-18 55 -46 95.5t-147 183.5z" />
<glyph unicode="&#x205f;" horiz-adv-x="481" />
<glyph unicode="&#x2122;" horiz-adv-x="1634" d="M109 1382v93h440v-93l-170 2v-647h-103v647zM524 737l148 762h33l229 -504l12 -30l4 -11q12 -31 13 -69q0 14 3 30.5t11 40.5l6 15l10 24l230 504h32l148 -762h-105l-77 445l-4 26l-3 9q-2 20 -2 30t5 35l-9 -29l-10 -34l-8 -25l-4 -8l-211 -469h-23l-211 469l-6 12 l-6 21l-18 63q4 -33 4 -43q-2 -14 -2 -22l-2 -9l-4 -26l-78 -445h-105z" />
<glyph unicode="&#x25fc;" horiz-adv-x="1044" d="M0 0v1044h1044v-1044h-1044z" />
</font>
</defs>
</svg>
